<?xml version="1.0" encoding="UTF-8" standalone="no"?>
<svg
   xmlns:dc="http://purl.org/dc/elements/1.1/"
   xmlns:cc="http://creativecommons.org/ns#"
   xmlns:rdf="http://www.w3.org/1999/02/22-rdf-syntax-ns#"
   xmlns:svg="http://www.w3.org/2000/svg"
   xmlns="http://www.w3.org/2000/svg"
   xmlns:xlink="http://www.w3.org/1999/xlink"
   xmlns:sodipodi="http://sodipodi.sourceforge.net/DTD/sodipodi-0.dtd"
   xmlns:inkscape="http://www.inkscape.org/namespaces/inkscape"
   version="1.1"
   id="svg833"
   width="1920"
   height="1920"
   viewBox="0 0 1920 1920"
   sodipodi:docname="question_mark.svg"
   inkscape:version="1.0.2-2 (e86c870879, 2021-01-15)">
  <metadata
     id="metadata839">
    <rdf:RDF>
      <cc:Work
         rdf:about="">
        <dc:format>image/svg+xml</dc:format>
        <dc:type
           rdf:resource="http://purl.org/dc/dcmitype/StillImage" />
        <dc:title></dc:title>
      </cc:Work>
    </rdf:RDF>
  </metadata>
  <defs
     id="defs837">
    <clipPath
       clipPathUnits="userSpaceOnUse"
       id="clipPath875">
      <use
         x="0"
         y="0"
         xlink:href="#g871"
         id="use877" />
    </clipPath>
  </defs>
  <sodipodi:namedview
     pagecolor="#ffffff"
     bordercolor="#666666"
     borderopacity="1"
     objecttolerance="10"
     gridtolerance="10"
     guidetolerance="10"
     inkscape:pageopacity="0"
     inkscape:pageshadow="2"
     inkscape:window-width="1920"
     inkscape:window-height="1057"
     id="namedview835"
     showgrid="false"
     inkscape:zoom="0.35625"
     inkscape:cx="2425.844"
     inkscape:cy="960"
     inkscape:window-x="1912"
     inkscape:window-y="-8"
     inkscape:window-maximized="1"
     inkscape:current-layer="g841" />
  <g
     inkscape:groupmode="layer"
     inkscape:label="Image"
     id="g841">
    <g
       id="g897">
      <g
         id="g847"
         transform="translate(42.105221,53.333334)">
        <g
           id="g873"
           clip-path="url(#clipPath875)">
          <g
             inkscape:label="Clip"
             id="g871">
            <g
               id="g885">
              <path
                 style="fill:#f6c8a2;stroke-width:0.96"
                 d="m 864.15157,1485.12 c 0,-1.32 0.21791,-1.86 0.48422,-1.2 0.26631,0.66 0.26631,1.74 0,2.4 -0.26631,0.66 -0.48422,0.12 -0.48422,-1.2 z m 0.96,-17.28 c 0,-1.32 0.21791,-1.86 0.48422,-1.2 0.26631,0.66 0.26631,1.74 0,2.4 -0.26631,0.66 -0.48422,0.12 -0.48422,-1.2 z m 0.96,-17.28 c 0,-1.32 0.21791,-1.86 0.48422,-1.2 0.26631,0.66 0.26631,1.74 0,2.4 -0.26631,0.66 -0.48422,0.12 -0.48422,-1.2 z m 160.52363,-16.32 c 0,-5.544 0.1586,-7.812 0.3525,-5.04 0.1939,2.772 0.1939,7.308 0,10.08 -0.1939,2.772 -0.3525,0.504 -0.3525,-5.04 z m -159.56363,0 c 0,-1.32 0.21791,-1.86 0.48422,-1.2 0.26631,0.66 0.26631,1.74 0,2.4 -0.26631,0.66 -0.48422,0.12 -0.48422,-1.2 z m 0.96,-17.28 c 0,-1.32 0.21791,-1.86 0.48422,-1.2 0.26631,0.66 0.26631,1.74 0,2.4 -0.26631,0.66 -0.48422,0.12 -0.48422,-1.2 z m 0.96,-16.32 c 0,-1.32 0.21791,-1.86 0.48422,-1.2 0.26631,0.66 0.26631,1.74 0,2.4 -0.26631,0.66 -0.48422,0.12 -0.48422,-1.2 z m 1.92,-33.6 c 0,-1.32 0.21791,-1.86 0.48422,-1.2 0.26631,0.66 0.26631,1.74 0,2.4 -0.26631,0.66 -0.48422,0.12 -0.48422,-1.2 z m 156.67903,-9.12 c 0,-5.28 0.1638,-7.3175 0.3583,-4.5278 0.1945,2.7897 0.1924,7.1097 0,9.6 -0.1971,2.4903 -0.3563,0.2078 -0.3538,-5.0722 z m -154.72345,-24.96 c 0.0196,-1.584 0.23472,-2.1157 0.47812,-1.1818 0.2434,0.9341 0.2274,2.2301 -0.0356,2.88 -0.26297,0.6501 -0.46211,-0.1142 -0.44255,-1.6982 z m 155.68345,-51.84 c 0,-5.28 0.1638,-7.3175 0.3583,-4.5278 0.1945,2.7897 0.1924,7.1097 0,9.6 -0.1971,2.4903 -0.3563,0.2078 -0.3538,-5.0722 z m -152.83903,1.44 c 0,-1.32 0.21791,-1.86 0.48422,-1.2 0.26631,0.66 0.26631,1.74 0,2.4 -0.26631,0.66 -0.48422,0.12 -0.48422,-1.2 z m 0.96,-17.28 c 0,-1.32 0.21791,-1.86 0.48422,-1.2 0.26631,0.66 0.26631,1.74 0,2.4 -0.26631,0.66 -0.48422,0.12 -0.48422,-1.2 z m 0.99558,-16.8 c 0.0196,-1.584 0.23472,-2.1157 0.47812,-1.1818 0.2434,0.9341 0.2274,2.2301 -0.0356,2.88 -0.26297,0.6501 -0.46211,-0.1142 -0.44255,-1.6982 z m 0.92442,-26.4 c 0,-1.32 0.21791,-1.86 0.48422,-1.2 0.26631,0.66 0.26631,1.74 0,2.4 -0.26631,0.66 -0.48422,0.12 -0.48422,-1.2 z M 1107.9916,1200 c 0,-1.32 0.2179,-1.86 0.4842,-1.2 0.2663,0.66 0.2663,1.74 0,2.4 -0.2663,0.66 -0.4842,0.12 -0.4842,-1.2 z m -1.92,-31.68 c 0,-1.32 0.2179,-1.86 0.4842,-1.2 0.2663,0.66 0.2663,1.74 0,2.4 -0.2663,0.66 -0.4842,0.12 -0.4842,-1.2 z m -230.40003,-4.8 c 0,-1.32 0.21791,-1.86 0.48422,-1.2 0.26631,0.66 0.26631,1.74 0,2.4 -0.26631,0.66 -0.48422,0.12 -0.48422,-1.2 z m 229.44003,-10.56 c 0,-1.32 0.2179,-1.86 0.4842,-1.2 0.2663,0.66 0.2663,1.74 0,2.4 -0.2663,0.66 -0.4842,0.12 -0.4842,-1.2 z m -139.0108,-13.92 c 0,-4.752 0.15936,-6.8171 0.36067,-4.589 0.20141,2.2281 0.20371,6.1161 0.01,8.64 -0.19843,2.5239 -0.36317,0.701 -0.36605,-4.051 z m -91.35365,4.8 c 0.0196,-1.584 0.23472,-2.1157 0.47812,-1.1818 0.2434,0.9341 0.2274,2.2301 -0.0356,2.88 -0.26297,0.6501 -0.46211,-0.1142 -0.44255,-1.6982 z m -0.96,-19.2 c 0.0196,-1.584 0.23472,-2.1157 0.47812,-1.1818 0.2434,0.9341 0.2274,2.2301 -0.0356,2.88 -0.26297,0.6501 -0.46211,-0.1142 -0.44255,-1.6982 z m -1.92,-39.36 c 0.0196,-1.584 0.23472,-2.1157 0.47812,-1.1818 0.2434,0.9341 0.2274,2.2301 -0.0356,2.88 -0.26297,0.6501 -0.46211,-0.1142 -0.44255,-1.6982 z m 95.18194,-11.52 c 0,-4.224 0.17232,-5.8326 0.37507,-3.5747 0.20275,2.2581 0.19997,5.7141 -0.01,7.68 -0.2063,1.9661 -0.37219,0.1187 -0.36874,-4.1053 z m -96.14194,-7.68 c 0.0196,-1.584 0.23472,-2.1157 0.47812,-1.1818 0.2434,0.9341 0.2274,2.2301 -0.0356,2.88 -0.26297,0.6501 -0.46211,-0.1142 -0.44255,-1.6982 z m -0.99558,-19.68 c 0,-1.32 0.21791,-1.86 0.48422,-1.2 0.26631,0.66 0.26631,1.74 0,2.4 -0.26631,0.66 -0.48422,0.12 -0.48422,-1.2 z m 228.48003,-2.88 c 0,-1.32 0.2179,-1.86 0.4842,-1.2 0.2663,0.66 0.2663,1.74 0,2.4 -0.2663,0.66 -0.4842,0.12 -0.4842,-1.2 z m -130.3708,-36.96 c 0,-4.752 0.15936,-6.81706 0.36067,-4.589 0.20141,2.2281 0.20371,6.1161 0.01,8.64 -0.19843,2.5239 -0.36317,0.701 -0.36605,-4.051 z m 127.4908,-10.08 c 0,-1.32 0.2179,-1.86 0.4842,-1.2 0.2663,0.66 0.2663,1.74 0,2.4 -0.2663,0.66 -0.4842,0.12 -0.4842,-1.2 z m -228.48003,-8.64 c 0,-1.32 0.21791,-1.86 0.48422,-1.2 0.26631,0.66 0.26631,1.74 0,2.4 -0.26631,0.66 -0.48422,0.12 -0.48422,-1.2 z m 227.52003,-6.72 c 0,-1.32 0.2179,-1.86 0.4842,-1.2 0.2663,0.66 0.2663,1.74 0,2.4 -0.2663,0.66 -0.4842,0.12 -0.4842,-1.2 z m -0.96,-15.36 c 0,-1.32 0.2179,-1.86 0.4842,-1.2 0.2663,0.66 0.2663,1.74 0,2.4 -0.2663,0.66 -0.4842,0.12 -0.4842,-1.2 z m -0.96,-16.32 c 0,-1.32 0.2179,-1.86 0.4842,-1.2 0.2663,0.66 0.2663,1.74 0,2.4 -0.2663,0.66 -0.4842,0.12 -0.4842,-1.2 z m -227.52003,-0.96 c 0,-1.32 0.21791,-1.86 0.48422,-1.2 0.26631,0.66 0.26631,1.74 0,2.4 -0.26631,0.66 -0.48422,0.12 -0.48422,-1.2 z m 226.56003,-14.4 c 0,-1.32 0.2179,-1.86 0.4842,-1.2 0.2663,0.66 0.2663,1.74 0,2.4 -0.2663,0.66 -0.4842,0.12 -0.4842,-1.2 z M 925.92,852.90726 c -12.78788,-1.75058 -18.07302,-3.05514 -24.96,-6.16101 -12.01725,-5.41951 -17.37309,-15.43282 -15.16123,-28.34556 2.05026,-11.96931 10.23352,-23.2909 19.81352,-27.41211 4.71841,-2.0298 5.18628,-2.04961 20.47768,-0.8667 8.60692,0.6658 16.62569,1.69752 17.81949,2.29269 1.62197,0.80864 2.17054,1.91449 2.17054,4.37554 0,2.67375 -0.61375,3.70701 -3.26196,5.49165 -1.79409,1.20904 -4.27809,2.19824 -5.52,2.19824 -3.88206,0 -2.4803,1.69889 3.13539,3.8 3.69387,1.38204 8.76097,2.20082 16.08,2.59828 12.40238,0.67352 15.12897,1.8252 17.90692,7.56384 3.26083,6.73588 1.85203,14.34543 -4.03104,21.77336 -8.72169,11.01205 -24.28733,15.45457 -44.46931,12.69178 z M 1030.56,842.88 c 0.9557,-1.056 1.9536,-1.92 2.2176,-1.92 0.264,0 -0.3019,0.864 -1.2576,1.92 -0.9557,1.056 -1.9536,1.92 -2.2176,1.92 -0.264,0 0.3019,-0.864 1.2576,-1.92 z m -2.4727,-73.68 -2.3273,-2.64 2.64,2.32734 c 2.4675,2.17525 3.0803,2.95266 2.3273,2.95266 -0.1719,0 -1.3599,-1.188 -2.64,-2.64 z m 81.3151,-73.59752 c -7.6479,-2.83297 -16.9105,-12.75817 -23.2669,-24.93124 -1.962,-3.75719 -4.037,-7.14863 -4.6113,-7.53654 -0.5743,-0.38792 -0.6673,-0.71192 -0.2067,-0.72 0.4607,-0.008 0.4271,-0.5547 -0.075,-1.2147 -3.4711,-4.56617 -6.0095,-18.59916 -4.9925,-27.6 1.0958,-9.69612 7.6621,-19.63719 14.9989,-22.70731 6.3945,-2.67583 14.5248,-0.98132 17.4028,3.62702 0.6238,0.99883 2.4595,5.16051 4.0793,9.24817 2.6333,6.64497 8.3634,15.52977 11.9186,18.48029 1.0805,0.89678 1.2251,0.20505 0.8412,-4.02257 -0.521,-5.73716 0.8605,-9.27863 4.078,-10.45347 3.5046,-1.27968 5.7866,1.49002 12.5471,15.22856 6.3411,12.88616 6.476,13.31873 6.4996,20.83931 0.03,9.43386 -2.3369,14.93201 -9.5283,22.13604 -8.8634,8.87902 -21.0415,12.82823 -29.6851,9.62644 z M 1238.4,586.08 c 1.24,-1.32 2.4707,-2.4 2.7347,-2.4 0.264,0 -0.5347,1.08 -1.7747,2.4 -1.24,1.32 -2.4707,2.4 -2.7347,2.4 -0.264,0 0.5347,-1.08 1.7747,-2.4 z m 12,-11.04 c 4.1992,-4.224 7.851,-7.68 8.115,-7.68 0.264,0 -2.9558,3.456 -7.155,7.68 -4.1992,4.224 -7.851,7.68 -8.115,7.68 -0.264,0 2.9558,-3.456 7.155,-7.68 z m -303.85183,-4.7683 -0.0118,-11.0717 -6.79216,-2.74996 c -18.58645,-7.52516 -35.1305,-23.14625 -44.70574,-42.21171 -4.75786,-9.47348 -8.95845,-24.1723 -8.95845,-31.3477 v -4.54319 l -4.98593,-0.59051 c -6.73678,-0.79787 -12.96465,-4.8042 -16.58869,-10.67136 -2.61032,-4.22599 -2.90399,-5.49082 -2.89162,-12.45462 0.0119,-6.72747 0.34537,-8.258 2.52513,-11.59095 4.84394,-7.40657 10.79114,-11.04 18.07027,-11.04 H 886.08 v -5.64939 -5.64938 l 5.52,-0.66952 c 7.9479,-0.964 18.28642,-4.64274 30.25999,-10.76737 l 10.44845,-5.34452 7.84578,3.93957 c 18.68083,9.38012 39.5446,10.91743 60.08878,4.42752 l 7.4846,-2.36439 15.2562,5.38495 c 8.391,2.96173 16.9842,5.47657 19.0962,5.58855 2.112,0.11197 7.62,0.28017 12.24,0.37378 l 8.4,0.1702 v 4.83012 c 0,3.04266 0.4441,4.95605 1.2,5.17037 0.66,0.18713 3.144,0.87007 5.52,1.51764 5.5818,1.5213 12.8008,8.55621 14.2862,13.92187 1.3947,5.03788 1.3561,11.30643 -0.1,16.20862 -2.1627,7.28264 -12.1066,14.99138 -19.338,14.99138 -1.1857,0 -1.5686,0.92204 -1.5686,3.77724 0,4.72892 -2.187,15.14197 -4.7017,22.38628 -7.2761,20.96119 -24.4372,40.24052 -44.4549,49.94218 l -8.3654,4.0543 -0.039,11.28 -0.039,11.28 -26.63997,0.078 c -14.652,0.0429 -27.828,0.16516 -29.28,0.2717 l -2.64,0.19371 -0.0118,-11.0717 z m 38.53557,-64.81039 c 7.67088,-5.05261 9.98141,-17.42128 4.78512,-25.61502 -3.03283,-4.78234 -9.22435,-8.50164 -14.09193,-8.46521 -12.36442,0.0926 -20.64295,15.30397 -14.84602,27.27877 4.632,9.56846 15.36375,12.59055 24.15283,6.80146 z m -43.74168,-37.42538 c 3.41364,-1.4263 6.2668,-6.0067 5.66115,-9.08828 -0.16297,-0.82921 -0.32936,-1.98874 -0.36976,-2.57674 -0.0404,-0.588 -1.21236,-2.208 -2.60436,-3.6 -5.53653,-5.53653 -15.70909,-1.40135 -15.70909,6.38578 0,3.63162 2.88823,8.03157 6.1326,9.34244 2.81726,1.13831 3.10242,1.11913 6.88946,-0.4632 z m 79.37794,-2.54362 c 3.6729,-3.89911 3.6092,-8.67082 -0.1662,-12.44615 -3.7957,-3.79578 -9.2657,-3.91245 -12.9029,-0.27525 -1.392,1.392 -2.5639,3.012 -2.6043,3.6 -0.04,0.588 -0.2068,1.74753 -0.3698,2.57674 -0.5839,2.97076 2.2455,7.65521 5.4506,9.02412 4.0943,1.74871 7.3213,0.99337 10.5926,-2.47946 z M 946.33189,446.16 c 0.5873,-0.72882 0.64186,-2.05824 0.13895,-3.38579 -0.81634,-2.15488 -1.02706,-2.18203 -14.9063,-1.92 -11.90698,0.2248 -14.23363,0.51248 -15.08573,1.86532 -0.73045,1.15971 -0.6605,2.01761 0.2544,3.12 1.04337,1.25717 3.63168,1.52047 14.94679,1.52047 9.7922,0 13.95996,-0.34135 14.65189,-1.2 z m 89.04271,-0.76607 c 1.3442,-4.23505 -0.6957,-4.82325 -15.7407,-4.5388 -12.6326,0.23883 -14.0425,0.43553 -14.343,2.00094 -0.8197,4.26991 -0.035,4.50393 15.0943,4.50393 13.6344,0 14.3972,-0.10003 14.9894,-1.96607 z M 1262.88,561.6 c 0.9557,-1.056 1.9536,-1.92 2.2176,-1.92 0.264,0 -0.3019,0.864 -1.2576,1.92 -0.9557,1.056 -1.9536,1.92 -2.2176,1.92 -0.264,0 0.3019,-0.864 1.2576,-1.92 z m 3.84,-4.8 c 0.9557,-1.056 1.9536,-1.92 2.2176,-1.92 0.264,0 -0.3019,0.864 -1.2576,1.92 -0.9557,1.056 -1.9536,1.92 -2.2176,1.92 -0.264,0 0.3019,-0.864 1.2576,-1.92 z M 1166.4,532.38756 c 0,-0.264 0.864,-0.94241 1.92,-1.50756 1.056,-0.56515 1.92,-0.81156 1.92,-0.54756 0,0.264 -0.864,0.94241 -1.92,1.50756 -1.056,0.56515 -1.92,0.81156 -1.92,0.54756 z m 19.2,-13.32795 c 0,-0.16522 1.404,-1.56922 3.12,-3.12 l 3.12,-2.81961 -2.8196,3.12 c -2.6283,2.90828 -3.4204,3.56126 -3.4204,2.81961 z M 1197.12,507.36 c 1.24,-1.32 2.4707,-2.4 2.7347,-2.4 0.264,0 -0.5347,1.08 -1.7747,2.4 -1.24,1.32 -2.4707,2.4 -2.7347,2.4 -0.264,0 0.5347,-1.08 1.7747,-2.4 z m 108.6316,-44.64 c 0,-1.32 0.2179,-1.86 0.4842,-1.2 0.2663,0.66 0.2663,1.74 0,2.4 -0.2663,0.66 -0.4842,0.12 -0.4842,-1.2 z m -84.48,-7.68 c 0,-1.32 0.2179,-1.86 0.4842,-1.2 0.2663,0.66 0.2663,1.74 0,2.4 -0.2663,0.66 -0.4842,0.12 -0.4842,-1.2 z m 85.6345,-10.56 c 0,-5.016 0.1617,-7.068 0.3595,-4.56 0.1978,2.508 0.1978,6.612 0,9.12 -0.1978,2.508 -0.3595,0.456 -0.3595,-4.56 z m -85.6345,-8.64 c 0,-1.32 0.2179,-1.86 0.4842,-1.2 0.2663,0.66 0.2663,1.74 0,2.4 -0.2663,0.66 -0.4842,0.12 -0.4842,-1.2 z m 84.48,-10.56 c 0,-1.32 0.2179,-1.86 0.4842,-1.2 0.2663,0.66 0.2663,1.74 0,2.4 -0.2663,0.66 -0.4842,0.12 -0.4842,-1.2 z m -94.2316,-19.2 c -0.5652,-1.056 -0.8116,-1.92 -0.5476,-1.92 0.264,0 0.9424,0.864 1.5076,1.92 0.5652,1.056 0.8116,1.92 0.5476,1.92 -0.264,0 -0.9424,-0.864 -1.5076,-1.92 z m -12.0912,-17.52 c -1.8288,-2.16 -1.8288,-2.16 0.3312,-0.33121 2.0298,1.71861 2.597,2.49121 1.8288,2.49121 -0.1822,0 -1.1542,-0.972 -2.16,-2.16 z m -11.9815,-12 -2.3273,-2.64 2.64,2.32734 c 1.452,1.28004 2.64,2.46804 2.64,2.64 0,0.75291 -0.7774,0.14014 -2.9527,-2.32734 z M 1133.52,351.68421 c 0.66,-0.26631 1.74,-0.26631 2.4,0 0.66,0.26631 0.12,0.48422 -1.2,0.48422 -1.32,0 -1.86,-0.21791 -1.2,-0.48422 z m -12.4628,-1.01995 c 1.7255,-0.21366 4.3175,-0.20925 5.76,0.01 1.4426,0.21905 0.031,0.39386 -3.1372,0.38847 -3.168,-0.006 -4.3482,-0.1846 -2.6228,-0.39826 z m 147.9901,-12.50426 -2.3273,-2.64 2.64,2.32734 c 2.4675,2.17525 3.0803,2.95266 2.3273,2.95266 -0.1719,0 -1.3599,-1.188 -2.64,-2.64 z m -10.0373,-11.04 -5.73,-6 6,5.72995 c 3.3,3.15147 6,5.85147 6,6 0,0.70935 -0.9474,-0.15646 -6.27,-5.72995 z m -11.5504,-10.56 -2.8196,-3.12 3.12,2.81961 c 2.9083,2.62827 3.5613,3.42039 2.8196,3.42039 -0.1652,0 -1.5692,-1.404 -3.12,-3.12 z M 1049.28,283.72931 c 0,-0.264 1.296,-1.15019 2.88,-1.96931 1.584,-0.81912 2.88,-1.27331 2.88,-1.00931 0,0.264 -1.296,1.15019 -2.88,1.96931 -1.584,0.81912 -2.88,1.27331 -2.88,1.00931 z m -65.02685,-3.13819 c 1.4593,-0.22066 3.6193,-0.21476 4.8,0.0131 1.1808,0.22786 -0.0134,0.4084 -2.65315,0.4012 -2.64,-0.008 -3.60605,-0.19365 -2.14685,-0.4143 z M 1098.96,266.24421 c 0.66,-0.26631 1.74,-0.26631 2.4,0 0.66,0.26631 0.12,0.48422 -1.2,0.48422 -1.32,0 -1.86,-0.21791 -1.2,-0.48422 z m 8.1782,-0.98948 c 0.9341,-0.2434 2.2301,-0.2274 2.88,0.0356 0.6501,0.26297 -0.1142,0.46211 -1.6982,0.44255 -1.584,-0.0196 -2.1157,-0.23472 -1.1818,-0.47812 z m 26.8618,0.004 c 0.924,-0.24146 2.436,-0.24146 3.36,0 0.924,0.24147 0.168,0.43904 -1.68,0.43904 -1.848,0 -2.604,-0.19757 -1.68,-0.43904 z"
                 id="path861"
                 sodipodi:nodetypes="sssssssssssssssssssssssssssssssscscccssssscscccssssssssssssssssssssssssssssssssscscccssssssssssssssscscccssssssssssssscscccsssssssssssssssssssssssssssssssssssssssssssssssscssssssscssssssssssssssssssssssccssscssssscccsscsscssscssssssssscccsscccsssssssssssssssssssssssssssssssssssssssssssssssscssssssssssssssssssssssssssssssssssssscssssssssssssscsssscsssscsssssssssscssssssssssssss" />
              <path
                 style="fill:#e8ba5d;stroke-width:0.96"
                 d="m 977.26694,859.75153 c -5.45635,-1.50709 -16.65148,-6.81326 -18.12784,-8.59212 -0.90138,-1.0861 -0.29258,-1.82617 3.17287,-3.85708 7.73712,-4.53425 14.00803,-14.38286 14.00803,-21.99993 0,-4.16676 -3.32986,-10.51444 -6.45965,-12.31406 -1.76102,-1.01263 -6.22992,-1.72548 -13.22035,-2.10884 -10.79045,-0.59175 -19.68,-2.78563 -19.68,-4.85689 0,-0.63629 1.45009,-1.68126 3.22242,-2.32215 8.43959,-3.05179 8.52737,-10.03479 0.16288,-12.95704 -2.00856,-0.70172 5.62491,-13.52737 12.12185,-20.36696 7.13155,-7.50766 16.18101,-12.84453 25.15739,-14.83638 8.52125,-1.89088 22.43476,-1.4605 29.41546,0.9099 8.5207,2.89333 16.0177,7.62028 21.6879,13.67457 13.7608,14.69281 18.2044,30.38162 13.9875,49.38394 -2.571,11.58552 -5.3074,16.61896 -13.767,25.32353 -8.1021,8.3368 -15.7849,12.82105 -25.4894,14.87747 -7.83868,1.66106 -20.2581,1.681 -26.19206,0.0421 z M 1052.16,734.84444 c -3.3411,-1.26526 -11.0788,-3.95576 -53.28,-18.52613 -14.70499,-5.07703 -22.17859,-8.11388 -22.3752,-9.09199 -0.67622,-3.36405 12.00202,-48.51874 16.35418,-58.24719 16.63922,-37.19341 29.55492,-55.0282 49.30952,-68.08923 15.9804,-10.56567 30.5876,-16.38378 60.4743,-24.08708 22.7133,-5.85437 39.2928,-11.74386 54.6285,-19.40557 30.7565,-15.36589 50.8981,-36.6937 60.0423,-63.57849 4.0799,-11.9953 5.0894,-19.3224 4.492,-32.6048 -0.9868,-21.94419 -8.9177,-39.25481 -26.1961,-57.17837 -9.7756,-10.14075 -18.9884,-16.72112 -32.3364,-23.09699 -13.7813,-6.58278 -26.4927,-9.85825 -38.6331,-9.95499 -12.0024,-0.0956 -17.6432,1.25363 -29.76,7.11849 -21.6137,10.46167 -35.7762,26.12912 -49.1616,54.38597 -2.3323,4.92356 -4.3911,8.95193 -4.5752,8.95193 -0.184,0 -7.8147,-2.60054 -16.957,-5.779 -9.1424,-3.17844 -17.1948,-5.55939 -17.8942,-5.29099 -0.6995,0.2684 -1.0589,0.14363 -0.7988,-0.27727 0.2602,-0.42089 -9.32942,-4.1487 -21.31013,-8.284 -11.9807,-4.13531 -22.52928,-7.89996 -23.44128,-8.36587 -1.55461,-0.79418 -1.53324,-1.19084 0.34186,-6.34501 5.70672,-15.68648 16.57555,-35.26665 28.81939,-51.91833 11.96136,-16.26752 37.49906,-39.52199 51.65426,-47.03624 21.3731,-11.34588 38.9906,-18.08202 54.2827,-20.75541 55.0299,-9.62039 115.7756,12.84701 163.2161,60.3671 23.3935,23.43267 37.4091,49.23882 44.2046,81.39119 3.406,16.11523 4.269,42.24329 1.928,58.37383 -3.0759,21.1958 -7.7457,36.45866 -16.8915,55.20781 -20.1551,41.31918 -58.363,77.19613 -104.0566,97.70848 -11.4844,5.15547 -18.2615,7.65007 -34.5578,12.72064 -9.7803,3.04311 -10.5606,3.1503 -11.7295,1.61151 -0.6887,-0.90664 -1.266,-2.15709 -1.2828,-2.77876 -0.016,-0.62168 -1.1381,-2.00156 -2.4918,-3.06639 -4.5174,-3.55339 -9.0152,0.32384 -9.0446,7.79671 -0.01,2.29873 -0.4633,3.6 -1.2568,3.6 -2.1405,0 -8.0649,-8.80154 -11.1412,-16.55212 -1.6225,-4.08766 -3.4603,-8.24934 -4.0841,-9.24817 -2.878,-4.60834 -11.0084,-6.30285 -17.4028,-3.62702 -7.3368,3.07012 -13.9031,13.01119 -14.9989,22.70731 -0.9935,8.79206 1.6217,23.59353 4.8165,27.26005 0.4121,0.47304 -0.097,2.51891 -1.1313,4.54639 -4.1235,8.08275 -16.445,46.91776 -20.0622,63.23223 -1.7397,7.84659 -2.2648,8.26911 -7.7133,6.20577 z"
                 id="path859"
                 sodipodi:nodetypes="ssssssssssssssssssssssssssssssssssssssssssssssssscscsssssssss" />
              <path
                 style="fill:#58c2d7;stroke-width:0.96"
                 d="m 961.2,1548.7782 c 0.924,-0.2416 2.436,-0.2416 3.36,0 0.924,0.2414 0.168,0.439 -1.68,0.439 -1.848,0 -2.604,-0.1976 -1.68,-0.439 z m -20.62881,-0.9771 c 1.19416,-0.2296 2.92216,-0.2209 3.84,0.019 0.91785,0.2403 -0.0592,0.4282 -2.17119,0.4175 -2.112,-0.011 -2.86296,-0.2073 -1.66881,-0.4369 z m 160.78881,-0.01 c 1.452,-0.2199 3.828,-0.2199 5.28,0 1.452,0.22 0.264,0.3999 -2.64,0.3999 -2.904,0 -4.092,-0.1799 -2.64,-0.3999 z m -172.78173,-0.9376 c 0.93405,-0.2434 2.23005,-0.2275 2.88,0.035 0.64995,0.2629 -0.11427,0.462 -1.69827,0.4425 -1.584,-0.019 -2.11578,-0.2347 -1.18173,-0.4781 z m 158.38173,0 c 0.924,-0.2416 2.436,-0.2416 3.36,0 0.924,0.2414 0.168,0.439 -1.68,0.439 -1.848,0 -2.604,-0.1976 -1.68,-0.439 z m -167.98173,-0.9636 c 0.93405,-0.2434 2.23005,-0.2274 2.88,0.035 0.64995,0.263 -0.11427,0.4621 -1.69827,0.4426 -1.584,-0.019 -2.11578,-0.2347 -1.18173,-0.4782 z m 156.94173,0.03 c 0.66,-0.2663 1.74,-0.2663 2.4,0 0.66,0.2663 0.12,0.4842 -1.2,0.4842 -1.32,0 -1.86,-0.2179 -1.2,-0.4842 z m -165.12,-0.96 c 0.66,-0.2663 1.74,-0.2663 2.4,0 0.66,0.2663 0.12,0.4842 -1.2,0.4842 -1.32,0 -1.86,-0.2179 -1.2,-0.4842 z m 156.0182,-0.03 c 0.9341,-0.2434 2.2301,-0.2274 2.88,0.035 0.6501,0.263 -0.1142,0.4621 -1.6982,0.4426 -1.584,-0.019 -2.1157,-0.2347 -1.1818,-0.4782 z M 903.12,1543.9997 c 0.66,-0.2663 1.74,-0.2663 2.4,0 0.66,0.2663 0.12,0.4842 -1.2,0.4842 -1.32,0 -1.86,-0.2179 -1.2,-0.4842 z m 156.48,0 c 0.66,-0.2663 1.74,-0.2663 2.4,0 0.66,0.2663 0.12,0.4842 -1.2,0.4842 -1.32,0 -1.86,-0.2179 -1.2,-0.4842 z m 71.4316,-1.2797 c 0,-1.32 0.2179,-1.86 0.4842,-1.2 0.2663,0.66 0.2663,1.74 0,2.4 -0.2663,0.66 -0.4842,0.12 -0.4842,-1.2 z m -235.5916,0.3242 c 0.66,-0.2663 1.74,-0.2663 2.4,0 0.66,0.2663 0.12,0.4842 -1.2,0.4842 -1.32,0 -1.86,-0.2179 -1.2,-0.4842 z m -6.72,-0.96 c 0.66,-0.2663 1.74,-0.2663 2.4,0 0.66,0.2663 0.12,0.4842 -1.2,0.4842 -1.32,0 -1.86,-0.2179 -1.2,-0.4842 z m -6.72,-0.96 c 0.66,-0.2663 1.74,-0.2663 2.4,0 0.66,0.2663 0.12,0.4842 -1.2,0.4842 -1.32,0 -1.86,-0.2179 -1.2,-0.4842 z m 93.58272,-3.2042 c 0,-1.848 0.19757,-2.604 0.43901,-1.68 0.24153,0.924 0.24153,2.436 0,3.36 -0.24144,0.924 -0.43901,0.168 -0.43901,-1.68 z m 155.51998,-5.76 c 0,-1.848 0.1976,-2.604 0.439,-1.68 0.2416,0.924 0.2416,2.436 0,3.36 -0.2414,0.924 -0.439,0.168 -0.439,-1.68 z m -105.5806,-1.44 c 0.011,-2.112 0.2073,-2.863 0.4369,-1.6688 0.2296,1.1942 0.2209,2.9222 -0.019,3.84 -0.2403,0.9178 -0.4282,-0.06 -0.4175,-2.1712 z m -159.22332,-12.48 c 0.002,-7.392 0.15219,-10.2891 0.33487,-6.438 0.18269,3.8511 0.18146,9.8991 -0.003,13.44 -0.18417,3.5409 -0.33364,0.39 -0.33215,-7.002 z m 108.2528,9.12 c 0,-1.32 0.21792,-1.86 0.48423,-1.2 0.2663,0.66 0.2663,1.74 0,2.4 -0.26631,0.66 -0.48423,0.12 -0.48423,-1.2 z m 153.53102,-5.1665 -2.3175,-2.9935 2.7466,2.6109 c 1.5105,1.436 2.5534,2.7831 2.3174,2.9935 -0.236,0.2104 -1.4719,-0.9645 -2.7465,-2.6109 z m -159.97914,-3.0465 c -1.78944,-1.4337 -1.77764,-1.4513 0.29654,-0.4462 1.188,0.5757 2.16,1.2475 2.16,1.493 0,0.7346 -0.49786,0.5224 -2.45654,-1.0468 z m 57.43804,-14.827 c 0,-2.376 0.1872,-3.348 0.416,-2.16 0.2288,1.188 0.2288,3.132 0,4.32 -0.2288,1.188 -0.416,0.216 -0.416,-2.16 z m -161.38993,-15.36 c 0,-1.32 0.21791,-1.86 0.48422,-1.2 0.26631,0.66 0.26631,1.74 0,2.4 -0.26631,0.66 -0.48422,0.12 -0.48422,-1.2 z m 0.99558,-16.8 c 0.0196,-1.584 0.23472,-2.1157 0.47812,-1.1818 0.2434,0.9341 0.2274,2.2301 -0.0356,2.88 -0.26297,0.6501 -0.46211,-0.1142 -0.44255,-1.6982 z m 161.44805,-18.72 c 0,-5.544 0.1586,-7.812 0.3525,-5.04 0.1939,2.772 0.1939,7.308 0,10.08 -0.1939,2.772 -0.3525,0.504 -0.3525,-5.04 z m -160.48805,1.44 c 0.0196,-1.584 0.23472,-2.1157 0.47812,-1.1818 0.2434,0.9341 0.2274,2.2301 -0.0356,2.88 -0.26297,0.6501 -0.46211,-0.1142 -0.44255,-1.6982 z m 0.92442,-16.8 c 0,-1.32 0.21791,-1.86 0.48422,-1.2 0.26631,0.66 0.26631,1.74 0,2.4 -0.26631,0.66 -0.48422,0.12 -0.48422,-1.2 z m 0.99558,-16.8 c 0.0196,-1.584 0.23472,-2.1157 0.47812,-1.1818 0.2434,0.9341 0.2274,2.2301 -0.0356,2.88 -0.26297,0.6501 -0.46211,-0.1142 -0.44255,-1.6982 z m 0.92442,-16.8 c 0,-1.32 0.21791,-1.86 0.48422,-1.2 0.26631,0.66 0.26631,1.74 0,2.4 -0.26631,0.66 -0.48422,0.12 -0.48422,-1.2 z m 0.99558,-16.8 c 0.0196,-1.584 0.23472,-2.1157 0.47812,-1.1818 0.2434,0.9341 0.2274,2.2301 -0.0356,2.88 -0.26297,0.6501 -0.46211,-0.1142 -0.44255,-1.6982 z m 157.60805,-11.04 c 0,-5.544 0.1586,-7.812 0.3525,-5.04 0.1939,2.772 0.1939,7.308 0,10.08 -0.1939,2.772 -0.3525,0.504 -0.3525,-5.04 z m -156.68363,-5.76 c 0,-1.32 0.21791,-1.86 0.48422,-1.2 0.26631,0.66 0.26631,1.74 0,2.4 -0.26631,0.66 -0.48422,0.12 -0.48422,-1.2 z m 0.96,-17.28 c 0,-1.32 0.21791,-1.86 0.48422,-1.2 0.26631,0.66 0.26631,1.74 0,2.4 -0.26631,0.66 -0.48422,0.12 -0.48422,-1.2 z m 0.96,-16.32 c 0,-1.32 0.21791,-1.86 0.48422,-1.2 0.26631,0.66 0.26631,1.74 0,2.4 -0.26631,0.66 -0.48422,0.12 -0.48422,-1.2 z m 0.96,-17.28 c 0,-1.32 0.21791,-1.86 0.48422,-1.2 0.26631,0.66 0.26631,1.74 0,2.4 -0.26631,0.66 -0.48422,0.12 -0.48422,-1.2 z m 154.76363,-20.16 c 0,-5.544 0.1586,-7.812 0.3525,-5.04 0.1939,2.772 0.1939,7.308 0,10.08 -0.1939,2.772 -0.3525,0.504 -0.3525,-5.04 z m -153.76805,3.36 c 0.0196,-1.584 0.23472,-2.1157 0.47812,-1.1818 0.2434,0.9341 0.2274,2.2301 -0.0356,2.88 -0.26297,0.6501 -0.46211,-0.1142 -0.44255,-1.6982 z m 0.92442,-16.8 c 0,-1.32 0.21791,-1.86 0.48422,-1.2 0.26631,0.66 0.26631,1.74 0,2.4 -0.26631,0.66 -0.48422,0.12 -0.48422,-1.2 z m 0.96,-17.28 c 0,-1.32 0.21791,-1.86 0.48422,-1.2 0.26631,0.66 0.26631,1.74 0,2.4 -0.26631,0.66 -0.48422,0.12 -0.48422,-1.2 z m 0.96,-16.32 c 0,-1.32 0.21791,-1.86 0.48422,-1.2 0.26631,0.66 0.26631,1.74 0,2.4 -0.26631,0.66 -0.48422,0.12 -0.48422,-1.2 z m 0.96,-17.28 c 0,-1.32 0.21791,-1.86 0.48422,-1.2 0.26631,0.66 0.26631,1.74 0,2.4 -0.26631,0.66 -0.48422,0.12 -0.48422,-1.2 z m 0.0356,-17.76 c 0.0196,-1.584 0.23472,-2.1157 0.47812,-1.1818 0.2434,0.9341 0.22739,2.2301 -0.0356,2.88 -0.26297,0.6501 -0.46211,-0.1142 -0.44255,-1.6982 z m 229.40443,-13.92 c 0,-1.32 0.2179,-1.86 0.4842,-1.2 0.2663,0.66 0.2663,1.74 0,2.4 -0.2663,0.66 -0.4842,0.12 -0.4842,-1.2 z m -230.3289,-5.76 c 0,-1.848 0.19757,-2.604 0.43904,-1.68 0.24146,0.924 0.24146,2.436 0,3.36 -0.24147,0.924 -0.43904,0.168 -0.43904,-1.68 z m 87.43478,-12 c 0.01,-3.168 0.18461,-4.3482 0.39821,-2.6228 0.2137,1.7255 0.20928,4.3175 -0.01,5.76 -0.21897,1.4426 -0.39379,0.031 -0.38841,-3.1372 z m 141.93412,1.44 c 0,-1.32 0.2179,-1.86 0.4842,-1.2 0.2663,0.66 0.2663,1.74 0,2.4 -0.2663,0.66 -0.4842,0.12 -0.4842,-1.2 z m -230.36447,-9.12 c 0.0196,-1.584 0.23472,-2.1157 0.47812,-1.1818 0.2434,0.9341 0.2274,2.2301 -0.0356,2.88 -0.26297,0.6501 -0.46211,-0.1142 -0.44255,-1.6982 z m 229.40447,-6.24 c 0,-1.32 0.2179,-1.86 0.4842,-1.2 0.2663,0.66 0.2663,1.74 0,2.4 -0.2663,0.66 -0.4842,0.12 -0.4842,-1.2 z M 875.70715,1159.2 c 0.0196,-1.584 0.23472,-2.1157 0.47812,-1.1818 0.2434,0.9341 0.2274,2.2301 -0.0356,2.88 -0.26297,0.6501 -0.46211,-0.1142 -0.44255,-1.6982 z m 229.40445,-2.4 c 0,-1.32 0.2179,-1.86 0.4842,-1.2 0.2663,0.66 0.2663,1.74 0,2.4 -0.2663,0.66 -0.4842,0.12 -0.4842,-1.2 z m -0.9245,-15.84 c 0.019,-1.584 0.2347,-2.1157 0.4782,-1.1818 0.2433,0.9341 0.2274,2.2301 -0.035,2.88 -0.263,0.6501 -0.4621,-0.1142 -0.4426,-1.6982 z m -229.43995,-1.92 c 0.0196,-1.584 0.23472,-2.1157 0.47812,-1.1818 0.2434,0.9341 0.2274,2.2301 -0.0356,2.88 -0.26297,0.6501 -0.46211,-0.1142 -0.44255,-1.6982 z m 91.35365,-16.32 c 0,-4.752 0.15936,-6.8171 0.36067,-4.589 0.20141,2.2281 0.20371,6.1161 0.01,8.64 -0.19843,2.5239 -0.36317,0.701 -0.36605,-4.051 z m 137.0908,2.4 c 0,-1.32 0.2179,-1.86 0.4842,-1.2 0.2663,0.66 0.2663,1.74 0,2.4 -0.2663,0.66 -0.4842,0.12 -0.4842,-1.2 z m -229.40445,-5.28 c 0.0196,-1.584 0.23472,-2.1157 0.47812,-1.1818 0.2434,0.9341 0.2274,2.2301 -0.0356,2.88 -0.26297,0.6501 -0.46211,-0.1142 -0.44255,-1.6982 z m 228.44445,-10.08 c 0,-1.32 0.2179,-1.86 0.4842,-1.2 0.2663,0.66 0.2663,1.74 0,2.4 -0.2663,0.66 -0.4842,0.12 -0.4842,-1.2 z m -229.40445,-9.12 c 0.0196,-1.584 0.23472,-2.1157 0.47812,-1.1818 0.2434,0.9341 0.2274,2.2301 -0.0356,2.88 -0.26297,0.6501 -0.46211,-0.1142 -0.44255,-1.6982 z m 228.44445,-6.24 c 0,-1.32 0.2179,-1.86 0.4842,-1.2 0.2663,0.66 0.2663,1.74 0,2.4 -0.2663,0.66 -0.4842,0.12 -0.4842,-1.2 z m -229.40445,-13.92 c 0.0196,-1.584 0.23472,-2.1157 0.47812,-1.1818 0.2434,0.9341 0.2274,2.2301 -0.0356,2.88 -0.26297,0.6501 -0.46211,-0.1142 -0.44255,-1.6982 z m 228.44445,-2.4 c 0,-1.32 0.2179,-1.86 0.4842,-1.2 0.2663,0.66 0.2663,1.74 0,2.4 -0.2663,0.66 -0.4842,0.12 -0.4842,-1.2 z m -133.2508,-21.6 c 0,-4.752 0.15936,-6.8171 0.36067,-4.589 0.20141,2.2281 0.20371,6.1161 0.01,8.64 -0.19843,2.5239 -0.36317,0.701 -0.36605,-4.051 z m 132.2908,6.24 c 0,-1.32 0.2179,-1.86 0.4842,-1.2 0.2663,0.66 0.2663,1.74 0,2.4 -0.2663,0.66 -0.4842,0.12 -0.4842,-1.2 z m -228.44445,-1.44 c 0.0196,-1.584 0.23472,-2.1157 0.47812,-1.1818 0.2434,0.9341 0.2274,2.2301 -0.0356,2.88 -0.26297,0.6501 -0.46211,-0.1142 -0.44255,-1.6982 z m 227.48445,-13.92 c 0,-1.32 0.2179,-1.86 0.4842,-1.2 0.2663,0.66 0.2663,1.74 0,2.4 -0.2663,0.66 -0.4842,0.12 -0.4842,-1.2 z m -228.44445,-5.28 c 0.0196,-1.584 0.23472,-2.1157 0.47812,-1.1818 0.2434,0.9341 0.2274,2.2301 -0.0356,2.88 -0.26297,0.6501 -0.46211,-0.1142 -0.44255,-1.6982 z m 227.48445,-11.04 c 0,-1.32 0.2179,-1.86 0.4842,-1.2 0.2663,0.66 0.2663,1.74 0,2.4 -0.2663,0.66 -0.4842,0.12 -0.4842,-1.2 z m -228.44445,-9.12 c 0.0196,-1.584 0.23472,-2.1157 0.47812,-1.1818 0.2434,0.9341 0.2274,2.2301 -0.0356,2.88 -0.26297,0.6501 -0.46211,-0.1142 -0.44255,-1.6982 z m 227.48445,-6.24 c 0,-1.32 0.2179,-1.86 0.4842,-1.2 0.2663,0.66 0.2663,1.74 0,2.4 -0.2663,0.66 -0.4842,0.12 -0.4842,-1.2 z m -228.44445,-12.96 c 0.0196,-1.584 0.23472,-2.1157 0.47812,-1.1818 0.2434,0.9341 0.2274,2.2301 -0.0356,2.88 -0.26297,0.6501 -0.46211,-0.1142 -0.44255,-1.6982 z m 227.48445,-2.4 c 0,-1.32 0.2179,-1.86 0.4842,-1.2 0.2663,0.66 0.2663,1.74 0,2.4 -0.2663,0.66 -0.4842,0.12 -0.4842,-1.2 z M 968.0208,990.24 c 0,-4.752 0.15936,-6.81706 0.36067,-4.58899 0.20141,2.22806 0.20371,6.11606 0.01,8.64 -0.19843,2.52393 -0.36317,0.70099 -0.36605,-4.05101 z m 126.5308,-5.28 c 0,-1.32 0.2179,-1.86 0.4842,-1.2 0.2663,0.66 0.2663,1.74 0,2.4 -0.2663,0.66 -0.4842,0.12 -0.4842,-1.2 z m -227.44888,-1.92 c 0,-1.848 0.19757,-2.604 0.43904,-1.68 0.24146,0.924 0.24146,2.436 0,3.36 -0.24147,0.924 -0.43904,0.168 -0.43904,-1.68 z M 975.12,979.4472 c 3.828,-0.18221 10.092,-0.18221 13.92,0 3.828,0.18221 0.696,0.3313 -6.96,0.3313 -7.656,0 -10.788,-0.14909 -6.96,-0.3313 z M 866.10715,963.36 c 0.0196,-1.584 0.23472,-2.11574 0.47812,-1.18176 0.2434,0.93408 0.2274,2.23008 -0.0356,2.88 -0.26297,0.65002 -0.46211,-0.11424 -0.44255,-1.69824 z m 226.52445,-10.08 c 0,-1.32 0.2179,-1.86 0.4842,-1.2 0.2663,0.66 0.2663,1.74 0,2.4 -0.2663,0.66 -0.4842,0.12 -0.4842,-1.2 z m -227.48445,-9.12 c 0.0196,-1.584 0.23472,-2.11578 0.47812,-1.18173 0.2434,0.93405 0.2274,2.23005 -0.0356,2.88 -0.26297,0.64995 -0.46211,-0.11427 -0.44255,-1.69827 z m 226.52445,-6.24 c 0,-1.32 0.2179,-1.86 0.4842,-1.2 0.2663,0.66 0.2663,1.74 0,2.4 -0.2663,0.66 -0.4842,0.12 -0.4842,-1.2 z M 968.64,934.9013 c -32.1026,-1.00925 -54.57924,-2.55201 -89.13325,-6.11796 -7.5753,-0.78175 -14.11925,-1.20755 -14.54212,-0.9462 -1.67618,1.03594 -5.6563,-33.8146 -7.72912,-67.67714 -0.59792,-9.768 -1.37252,-18.01583 -1.72132,-18.32852 -0.3488,-0.31268 -5.17019,-2.23108 -10.71419,-4.2631 -12.94119,-4.7433 -28.9998,-11.84893 -39.36,-17.41607 -18.73568,-10.06777 -38.88239,-25.06288 -45.90751,-34.16873 -20.83486,-27.00585 -15.80067,-71.4586 13.01717,-114.94358 8.34693,-12.5952 16.20387,-22.67539 34.79436,-44.64 32.34888,-38.22011 35.10497,-40.42692 52.1885,-41.78756 5.36112,-0.427 17.80242,-1.08713 27.64735,-1.46699 l 17.89987,-0.69063 1.30013,2.41896 c 0.71507,1.33042 11.88413,19.08597 24.82013,39.45678 17.09129,26.9143 23.69836,36.58841 24.17252,35.39363 0.46984,-1.18384 0.67143,-0.87413 0.72,1.10618 0.0662,2.69876 16.77916,30.36963 18.343,30.36963 0.3984,0 2.12093,-2.17643 3.8279,-4.8365 1.70698,-2.66007 3.24029,-4.69982 3.40733,-4.53277 0.16704,0.16705 -1.16083,6.11122 -2.95075,13.20927 -1.78992,7.09805 -3.13795,13.02203 -2.99558,13.16438 0.25545,0.25553 39.50608,13.98157 67.14108,23.47944 7.9314,2.72592 14.5553,4.51462 14.9708,4.04267 0.4099,-0.46557 2.3283,-7.11049 4.2631,-14.76649 5.9365,-23.4907 17.614,-57.6 19.7197,-57.6 0.4232,0 1.5909,1.82589 2.5951,4.05754 2.6559,5.90222 8.3813,14.48614 13.0155,19.51364 l 4.037,4.37962 -1.1746,40.5046 c -1.1919,41.09994 -3.1792,90.33472 -4.9479,122.5846 -1.2684,23.12451 -3.7992,62.91151 -4.2748,67.2 -0.2049,1.848 -0.4033,3.88335 -0.441,4.523 -0.1215,2.06541 -14.6832,4.8521 -37.0284,7.08616 -14.9331,1.493 -61.67933,2.42404 -84.96,1.69214 z m 35.9498,-75.24855 c 13.7834,-3.59014 27.8332,-14.84011 34.1153,-27.3169 5.4833,-10.89016 7.1707,-27.18347 3.9998,-38.61922 -6.722,-24.24125 -29.9832,-41.33204 -53.9049,-39.6055 -15.33466,1.10678 -24.74438,4.9967 -34.3127,14.1847 -6.58407,6.32234 -11.73402,13.49303 -13.74923,19.14417 -0.73289,2.05519 -1.92193,3.60121 -2.77092,3.60281 -0.81793,0.002 -7.21098,-0.48921 -14.20678,-1.09057 -11.57963,-0.99538 -13.12808,-0.93738 -17.2772,0.64718 -13.78051,5.26282 -23.80153,24.51008 -20.48259,39.34067 2.15599,9.63399 11.28706,17.08311 25.05174,20.43721 15.49191,3.77499 32.51535,4.24613 42.70768,1.18198 3.65461,-1.0987 4.11808,-0.9867 9.6,2.31984 8.60851,5.19241 15.71347,7.12382 26.4383,7.18696 5.29901,0.0312 11.5322,-0.56439 14.7915,-1.41333 z M 935.04,805.44 c 0,-0.528 0.432,-0.96 0.96,-0.96 0.528,0 0.96,0.432 0.96,0.96 0,0.528 -0.432,0.96 -0.96,0.96 -0.528,0 -0.96,-0.432 -0.96,-0.96 z m -80.97411,-41.90934 c -0.34425,-5.62614 -0.64348,-27.98214 -0.66498,-49.68 l -0.0391,-39.45066 -7.14001,7.49051 c -15.23418,15.98201 -29.72721,41.80952 -33.46359,59.63424 l -1.3269,6.33014 4.44433,3.6741 c 2.44439,2.02075 7.25234,5.56606 10.68434,7.87846 6.37645,4.29629 25.40642,14.35255 27.16008,14.35255 0.63396,0 0.75416,-3.55543 0.34581,-10.22934 z m 299.15131,60.2492 c -2.7626,-1.02559 -6.2602,-2.74574 -7.7725,-3.82255 -3.6397,-2.59172 -9.2991,-8.91223 -11.1024,-12.39933 -1.3666,-2.64296 -31.3023,-111.88602 -31.3023,-114.23061 0,-0.64836 1.4831,-0.22705 3.6,1.02264 8.6518,5.10759 22.5771,1.51379 32.4475,-8.37397 6.4334,-6.44472 9.3983,-12.72509 9.8726,-20.91197 0.3557,-6.14262 0.1296,-6.97275 -4.6597,-17.10547 -2.9045,-6.1452 -4.6754,-11.0071 -4.1869,-11.49492 0.4656,-0.46498 2.5745,-1.11929 4.6865,-1.45404 l 3.84,-0.60864 24.9483,75.19949 c 24.3831,73.4961 24.9476,75.37348 24.919,82.87951 -0.025,6.63972 -0.4453,8.54168 -3.1007,14.04151 -5.6666,11.73604 -15.8601,18.23638 -29.4866,18.80345 -5.8428,0.24315 -8.8816,-0.12647 -12.7028,-1.5451 z M 956.31157,652.8 c 0,-1.32 0.21791,-1.86 0.48422,-1.2 0.26631,0.66 0.26631,1.74 0,2.4 -0.26631,0.66 -0.48422,0.12 -0.48422,-1.2 z m 36.48001,-10.56 c 0,-1.32 0.21792,-1.86 0.48423,-1.2 0.2663,0.66 0.2663,1.74 0,2.4 -0.26631,0.66 -0.48423,0.12 -0.48423,-1.2 z M 1124.16,641.76 c -0.9788,-1.17937 -0.9132,-1.44 0.3625,-1.44 0.8566,0 1.5575,0.648 1.5575,1.44 0,0.792 -0.1631,1.44 -0.3625,1.44 -0.1993,0 -0.9002,-0.648 -1.5575,-1.44 z m -132.32842,-7.2 c 0,-1.32 0.21792,-1.86 0.48423,-1.2 0.2663,0.66 0.2663,1.74 0,2.4 -0.26631,0.66 -0.48423,0.12 -0.48423,-1.2 z m -32.64001,-2.88 c 0,-1.32 0.21791,-1.86 0.48422,-1.2 0.26631,0.66 0.26631,1.74 0,2.4 -0.26631,0.66 -0.48422,0.12 -0.48422,-1.2 z m 31.68001,-5.76 c 0,-1.32 0.21792,-1.86 0.48423,-1.2 0.2663,0.66 0.2663,1.74 0,2.4 -0.26631,0.66 -0.48423,0.12 -0.48423,-1.2 z m -0.96,-7.68 c 0,-1.32 0.21792,-1.86 0.48423,-1.2 0.2663,0.66 0.2663,1.74 0,2.4 -0.26631,0.66 -0.48423,0.12 -0.48423,-1.2 z m -28.8,-0.96 c 0,-1.32 0.21792,-1.86 0.48423,-1.2 0.2663,0.66 0.2663,1.74 0,2.4 -0.26631,0.66 -0.48423,0.12 -0.48423,-1.2 z m -10.46554,-34.56 c 0.3296,-1.2101 3.13844,-1.44571 17.59306,-1.47578 l 17.2009,-0.0358 -16.75786,0.29929 c -11.83728,0.21141 -17.00314,0.64475 -17.59311,1.47578 -0.60414,0.85099 -0.72669,0.77809 -0.44299,-0.26352 z M 885.42727,426.24 c 0,-3.432 0.17424,-4.836 0.38719,-3.12 0.21295,1.716 0.21295,4.524 0,6.24 -0.21295,1.716 -0.38719,0.312 -0.38719,-3.12 z m 177.58043,0 c 0,-2.904 0.1799,-4.092 0.3999,-2.64 0.22,1.452 0.22,3.828 0,5.28 -0.22,1.452 -0.3999,0.264 -0.3999,-2.64 z M 847.83157,388.8 c 0,-1.32 0.21791,-1.86 0.48422,-1.2 0.26631,0.66 0.26631,1.74 0,2.4 -0.26631,0.66 -0.48422,0.12 -0.48422,-1.2 z"
                 id="path857"
                 sodipodi:nodetypes="ssssssssssssscssccsssscssccsssssssscssccssssssssssssssssssssssssssssssssssssssssssssssscsssssssssssssssssssssssssssssssssssssssssssssssssssssssssssssssssssssssssssssssssssssssssssssssssssssssssssssssssssssssssssssssssssssssssssssscscccssssssssssssssssssssssssssssssscscccsssssssssssssssssssssssssssssssssssssssscscccsssssssssssssssssssssssssssssssssssssssssscssssssssssssssscsssssssssssssssssssssssssssscsscssssssssssssssscsssssssssssssssssssssssssssssssssssssssscssssssssssssssss" />
              <path
                 style="fill:#1d91b5;stroke-width:0.96"
                 d="m 941.28,1547.8159 c -9.52469,-0.6312 -41.16818,-4.3246 -55.91947,-6.5269 -12.85866,-1.9198 -15.32322,-2.5626 -16.79555,-4.3808 -1.54844,-1.9123 -1.6988,-4.014 -1.46525,-20.4796 l 0.26027,-18.3486 3.36,0.2378 c 1.848,0.1307 11.352,0.3294 21.12,0.4412 14.2125,0.1628 18.97148,-0.1236 23.82508,-1.4345 l 6.06509,-1.6382 21.29491,10.4723 c 11.71221,5.7597 23.44782,11.9158 26.07918,13.6802 5.42563,3.6379 6.103,5.587 6.20044,17.8412 0.0835,10.4728 -0.4944,10.8447 -16.5047,10.627 -6.996,-0.095 -14.88,-0.3162 -17.52,-0.4911 z m 155.04,-0.4099 c -27.5402,-1.6919 -65.0869,-7.1849 -68.1676,-9.9729 -2.2719,-2.056 -3.3041,-14.8351 -2.3857,-29.5344 l 0.6826,-10.9232 4.9353,1.4172 c 9.7191,2.7908 47.13,1.4274 49.1185,-1.79 0.4909,-0.7943 34.0064,16.3095 41.9253,21.3954 7.7293,4.964 8.5002,6.4925 8.7343,17.317 0.2732,12.6336 -0.29,13.2127 -12.6715,13.026 -5.0661,-0.077 -15.0432,-0.4972 -22.1712,-0.9351 z M 977.52,935.30067 c 1.98,-0.20711 5.22,-0.20711 7.2,0 1.98,0.20712 0.36,0.37657 -3.6,0.37657 -3.96,0 -5.58,-0.16945 -3.6,-0.37657 z m 18.72,-0.0149 c 4.356,-0.17788 11.484,-0.17788 15.84,0 4.356,0.17789 0.792,0.32342 -7.92,0.32342 -8.712,0 -12.276,-0.14553 -7.92,-0.32342 z m -44.6268,-0.93465 c 1.45926,-0.22066 3.61926,-0.21476 4.8,0.0131 1.18074,0.22786 -0.0131,0.4084 -2.6532,0.4012 -2.64,-0.008 -3.60606,-0.19365 -2.1468,-0.41431 z m 83.0268,0.0113 c 1.188,-0.22883 3.132,-0.22883 4.32,0 1.188,0.22882 0.216,0.41604 -2.16,0.41604 -2.376,0 -3.348,-0.18722 -2.16,-0.41604 z m -101.76,-0.91829 c 0.66,-0.26631 1.74,-0.26631 2.4,0 0.66,0.26632 0.12,0.48422 -1.2,0.48422 -1.32,0 -1.86,-0.2179 -1.2,-0.48422 z m 116.6582,-0.0295 c 0.9341,-0.2434 2.2301,-0.22739 2.88,0.0356 0.6501,0.26297 -0.1142,0.46211 -1.6982,0.44255 -1.584,-0.0196 -2.1157,-0.23472 -1.1818,-0.47812 z M 918.96,932.45824 c 0.924,-0.24146 2.436,-0.24146 3.36,0 0.924,0.24147 0.168,0.43904 -1.68,0.43904 -1.848,0 -2.604,-0.19757 -1.68,-0.43904 z m -12,-0.93403 c 0.66,-0.26631 1.74,-0.26631 2.4,0 0.66,0.26631 0.12,0.48422 -1.2,0.48422 -1.32,0 -1.86,-0.21791 -1.2,-0.48422 z m -21.58173,-1.94948 c 0.93405,-0.2434 2.23005,-0.2274 2.88,0.0356 0.64995,0.26297 -0.11427,0.46211 -1.69827,0.44255 -1.584,-0.0196 -2.11578,-0.23472 -1.18173,-0.47812 z m -9.6,-0.96 c 0.93405,-0.2434 2.23005,-0.2274 2.88,0.0356 0.64995,0.26297 -0.11427,0.46211 -1.69827,0.44255 -1.584,-0.0196 -2.11578,-0.23472 -1.18173,-0.47812 z M 866.64,927.68421 c 0.66,-0.26631 1.74,-0.26631 2.4,0 0.66,0.26631 0.12,0.48422 -1.2,0.48422 -1.32,0 -1.86,-0.21791 -1.2,-0.48422 z m 98.29555,-250.29384 c -4.82659,-7.59529 -8.78861,-14.83129 -8.80457,-16.08 -0.0159,-1.2487 1.36068,-12.71685 3.05921,-25.48478 l 3.08827,-23.21441 -5.58195,-14.98289 c -3.07006,-8.24058 -5.41871,-15.12239 -5.21922,-15.29289 0.19949,-0.1705 11.92812,-0.59436 26.06364,-0.94189 l 25.70087,-0.63188 -1.3215,3.13918 c -0.7268,1.72656 -3.83902,8.90602 -6.91601,15.95435 l -5.59469,12.81517 2.00918,17.09356 2.00919,17.09355 -2.42707,6.57127 c -1.33488,3.61421 -3.86016,11.17973 -5.61168,16.81228 -2.86397,9.2096 -9.02458,20.95901 -10.9896,20.95901 -0.37863,0 -4.63748,-6.21433 -9.46407,-13.80963 z"
                 id="path853"
                 sodipodi:nodetypes="sssscssscsssssssscsssssssssssssssscsssssssssssssssssssssssssssssssssssssssscssscsscccssss" />
              <path
                 style="fill:#2248a8;stroke-width:0.96"
                 d="m 884.4,1498.8583 c 0.924,-0.2416 2.436,-0.2416 3.36,0 0.924,0.2414 0.168,0.439 -1.68,0.439 -1.848,0 -2.604,-0.1976 -1.68,-0.439 z m 13.44,0 c 0.924,-0.2416 2.436,-0.2416 3.36,0 0.924,0.2414 0.168,0.439 -1.68,0.439 -1.848,0 -2.604,-0.1976 -1.68,-0.439 z m -33.65285,-5.5783 c 0.0196,-1.584 0.23472,-2.1157 0.47812,-1.1818 0.2434,0.9341 0.2274,2.2301 -0.0356,2.88 -0.26297,0.6501 -0.46211,-0.1142 -0.44255,-1.6982 z m 162.40805,-20.64 c 0,-5.544 0.1586,-7.812 0.3525,-5.04 0.1939,2.772 0.1939,7.308 0,10.08 -0.1939,2.772 -0.3525,0.504 -0.3525,-5.04 z m -161.48363,3.84 c 0,-1.32 0.21791,-1.86 0.48422,-1.2 0.26631,0.66 0.26631,1.74 0,2.4 -0.26631,0.66 -0.48422,0.12 -0.48422,-1.2 z m 0.96,-17.28 c 0,-1.32 0.21791,-1.86 0.48422,-1.2 0.26631,0.66 0.26631,1.74 0,2.4 -0.26631,0.66 -0.48422,0.12 -0.48422,-1.2 z m 0.96,-16.32 c 0,-1.32 0.21791,-1.86 0.48422,-1.2 0.26631,0.66 0.26631,1.74 0,2.4 -0.26631,0.66 -0.48422,0.12 -0.48422,-1.2 z m 0.96,-17.28 c 0,-1.32 0.21791,-1.86 0.48422,-1.2 0.26631,0.66 0.26631,1.74 0,2.4 -0.26631,0.66 -0.48422,0.12 -0.48422,-1.2 z m 0.99558,-16.8 c 0.0196,-1.584 0.23472,-2.1157 0.47812,-1.1818 0.2434,0.9341 0.2274,2.2301 -0.0356,2.88 -0.26297,0.6501 -0.46211,-0.1142 -0.44255,-1.6982 z m 158.56805,-12.96 c 0,-5.544 0.1586,-7.812 0.3525,-5.04 0.1939,2.772 0.1939,7.308 0,10.08 -0.1939,2.772 -0.3525,0.504 -0.3525,-5.04 z M 869.91157,1392 c 0,-1.32 0.21791,-1.86 0.48422,-1.2 0.26631,0.66 0.26631,1.74 0,2.4 -0.26631,0.66 -0.48422,0.12 -0.48422,-1.2 z m 0.96,-17.28 c 0,-1.32 0.21791,-1.86 0.48422,-1.2 0.26631,0.66 0.26631,1.74 0,2.4 -0.26631,0.66 -0.48422,0.12 -0.48422,-1.2 z m 0.96,-16.32 c 0,-1.32 0.21791,-1.86 0.48422,-1.2 0.26631,0.66 0.26631,1.74 0,2.4 -0.26631,0.66 -0.48422,0.12 -0.48422,-1.2 z m 0.96,-17.28 c 0,-1.32 0.21791,-1.86 0.48422,-1.2 0.26631,0.66 0.26631,1.74 0,2.4 -0.26631,0.66 -0.48422,0.12 -0.48422,-1.2 z m 155.72363,-22.08 c 0,-5.544 0.1586,-7.812 0.3525,-5.04 0.1939,2.772 0.1939,7.308 0,10.08 -0.1939,2.772 -0.3525,0.504 -0.3525,-5.04 z m -154.72805,5.28 c 0.0196,-1.584 0.23472,-2.1157 0.47812,-1.1818 0.2434,0.9341 0.2274,2.2301 -0.0356,2.88 -0.26297,0.6501 -0.46211,-0.1142 -0.44255,-1.6982 z m 0.92442,-16.8 c 0,-1.32 0.21791,-1.86 0.48422,-1.2 0.26631,0.66 0.26631,1.74 0,2.4 -0.26631,0.66 -0.48422,0.12 -0.48422,-1.2 z m 0.99558,-16.8 c 0.0196,-1.584 0.23472,-2.1157 0.47812,-1.1818 0.2434,0.9341 0.2274,2.2301 -0.0356,2.88 -0.26297,0.6501 -0.46211,-0.1142 -0.44255,-1.6982 z m 0.92442,-16.8 c 0,-1.32 0.21791,-1.86 0.48422,-1.2 0.26631,0.66 0.26631,1.74 0,2.4 -0.26631,0.66 -0.48422,0.12 -0.48422,-1.2 z m 0.96,-17.28 c 0,-1.32 0.21791,-1.86 0.48422,-1.2 0.26631,0.66 0.26631,1.74 0,2.4 -0.26631,0.66 -0.48422,0.12 -0.48422,-1.2 z m 0.99558,-16.8 c 0.0196,-1.584 0.23472,-2.1157 0.47812,-1.1818 0.2434,0.9341 0.2274,2.2301 -0.0356,2.88 -0.26297,0.6501 -0.46211,-0.1142 -0.44255,-1.6982 z m 0.0356,-27.36 c 0,-1.848 0.19757,-2.604 0.43903,-1.68 0.24146,0.924 0.24146,2.436 0,3.36 -0.24146,0.924 -0.43903,0.168 -0.43903,-1.68 z m 229.36885,-4.8 c 0,-1.32 0.218,-1.86 0.4843,-1.2 0.2663,0.66 0.2663,1.74 0,2.4 -0.2663,0.66 -0.4843,0.12 -0.4843,-1.2 z M 877.6272,1192.8 c 0.0196,-1.584 0.23472,-2.1157 0.47812,-1.1818 0.2434,0.9341 0.22739,2.2301 -0.0356,2.88 -0.26297,0.6501 -0.46211,-0.1142 -0.44255,-1.6982 z m 229.4044,-0.48 c 0,-1.32 0.218,-1.86 0.4843,-1.2 0.2663,0.66 0.2663,1.74 0,2.4 -0.2663,0.66 -0.4843,0.12 -0.4843,-1.2 z m -141.89075,-20.64 c 0,-4.752 0.15936,-6.8171 0.36067,-4.589 0.20141,2.2281 0.20371,6.1161 0.01,8.64 -0.19843,2.5239 -0.36317,0.701 -0.36605,-4.051 z m 140.93075,4.32 c 0,-1.32 0.218,-1.86 0.4843,-1.2 0.2663,0.66 0.2663,1.74 0,2.4 -0.2663,0.66 -0.4843,0.12 -0.4843,-1.2 z m -229.4044,-2.4 c 0.0196,-1.584 0.23472,-2.1157 0.47812,-1.1818 0.2434,0.9341 0.22739,2.2301 -0.0356,2.88 -0.26297,0.6501 -0.46211,-0.1142 -0.44255,-1.6982 z m 228.4444,-12.96 c 0,-1.32 0.2179,-1.86 0.4842,-1.2 0.2663,0.66 0.2663,1.74 0,2.4 -0.2663,0.66 -0.4842,0.12 -0.4842,-1.2 z m -229.40445,-7.2 c 0.0196,-1.584 0.23472,-2.1157 0.47812,-1.1818 0.2434,0.9341 0.2274,2.2301 -0.0356,2.88 -0.26297,0.6501 -0.46211,-0.1142 -0.44255,-1.6982 z m 228.44445,-8.16 c 0,-1.32 0.2179,-1.86 0.4842,-1.2 0.2663,0.66 0.2663,1.74 0,2.4 -0.2663,0.66 -0.4842,0.12 -0.4842,-1.2 z m -229.40445,-11.04 c 0.0196,-1.584 0.23472,-2.1157 0.47812,-1.1818 0.2434,0.9341 0.2274,2.2301 -0.0356,2.88 -0.26297,0.6501 -0.46211,-0.1142 -0.44255,-1.6982 z m 228.44445,-5.28 c 0,-1.32 0.2179,-1.86 0.4842,-1.2 0.2663,0.66 0.2663,1.74 0,2.4 -0.2663,0.66 -0.4842,0.12 -0.4842,-1.2 z m -229.40445,-13.92 c 0.0196,-1.584 0.23472,-2.1157 0.47812,-1.1818 0.2434,0.9341 0.2274,2.2301 -0.0356,2.88 -0.26297,0.6501 -0.46211,-0.1142 -0.44255,-1.6982 z m 228.44445,-1.44 c 0,-1.32 0.2179,-1.86 0.4842,-1.2 0.2663,0.66 0.2663,1.74 0,2.4 -0.2663,0.66 -0.4842,0.12 -0.4842,-1.2 z m -136.1308,-8.16 c 0,-4.752 0.15936,-6.8171 0.36067,-4.589 0.20141,2.2281 0.20371,6.1161 0.01,8.64 -0.19843,2.5239 -0.36317,0.701 -0.36605,-4.051 z m 135.1708,-7.2 c 0,-1.32 0.2179,-1.86 0.4842,-1.2 0.2663,0.66 0.2663,1.74 0,2.4 -0.2663,0.66 -0.4842,0.12 -0.4842,-1.2 z m -228.44445,-3.36 c 0.0196,-1.584 0.23472,-2.1157 0.47812,-1.1818 0.2434,0.9341 0.2274,2.2301 -0.0356,2.88 -0.26297,0.6501 -0.46211,-0.1142 -0.44255,-1.6982 z m 227.48445,-12 c 0,-1.32 0.2179,-1.86 0.4842,-1.2 0.2663,0.66 0.2663,1.74 0,2.4 -0.2663,0.66 -0.4842,0.12 -0.4842,-1.2 z m -228.44445,-7.2 c 0.0196,-1.584 0.23472,-2.1157 0.47812,-1.1818 0.2434,0.9341 0.2274,2.2301 -0.0356,2.88 -0.26297,0.6501 -0.46211,-0.1142 -0.44255,-1.6982 z m 227.48445,-9.12 c 0,-1.32 0.2179,-1.86 0.4842,-1.2 0.2663,0.66 0.2663,1.74 0,2.4 -0.2663,0.66 -0.4842,0.12 -0.4842,-1.2 z M 870.87157,1056 c 0,-1.32 0.21791,-1.86 0.48422,-1.2 0.26631,0.66 0.26631,1.74 0,2.4 -0.26631,0.66 -0.48422,0.12 -0.48422,-1.2 z m 227.52003,-4.8 c 0,-1.32 0.2179,-1.86 0.4842,-1.2 0.2663,0.66 0.2663,1.74 0,2.4 -0.2663,0.66 -0.4842,0.12 -0.4842,-1.2 z m -131.3308,-12 c 0,-4.752 0.15936,-6.8171 0.36067,-4.589 0.20141,2.2281 0.20371,6.1161 0.01,8.64 -0.19843,2.5239 -0.36317,0.701 -0.36605,-4.051 z m -97.11365,-2.88 c 0.0196,-1.584 0.23472,-2.1157 0.47812,-1.1818 0.2434,0.9341 0.2274,2.2301 -0.0356,2.88 -0.26297,0.6501 -0.46211,-0.1142 -0.44255,-1.6982 z m 227.48445,-0.48 c 0,-1.32 0.2179,-1.86 0.4842,-1.2 0.2663,0.66 0.2663,1.74 0,2.4 -0.2663,0.66 -0.4842,0.12 -0.4842,-1.2 z m -0.96,-16.32 c 0,-1.32 0.2179,-1.86 0.4842,-1.2 0.2663,0.66 0.2663,1.74 0,2.4 -0.2663,0.66 -0.4842,0.12 -0.4842,-1.2 z m -227.48445,-2.4 c 0.0196,-1.584 0.23472,-2.1157 0.47812,-1.1818 0.2434,0.9341 0.2274,2.2301 -0.0356,2.88 -0.26297,0.6501 -0.46211,-0.1142 -0.44255,-1.6982 z m 226.52445,-12.96 c 0,-1.32 0.2179,-1.86 0.4842,-1.2 0.2663,0.66 0.2663,1.74 0,2.4 -0.2663,0.66 -0.4842,0.12 -0.4842,-1.2 z m -227.44888,-6.72 c 0,-1.848 0.19757,-2.604 0.43904,-1.68 0.24146,0.924 0.24146,2.436 0,3.36 -0.24147,0.924 -0.43904,0.168 -0.43904,-1.68 z m 226.48888,-8.64 c 0,-1.32 0.2179,-1.86 0.4842,-1.2 0.2663,0.66 0.2663,1.74 0,2.4 -0.2663,0.66 -0.4842,0.12 -0.4842,-1.2 z M 867.06715,977.76 c 0.0196,-1.584 0.23472,-2.11574 0.47812,-1.18176 0.2434,0.93408 0.2274,2.23008 -0.0356,2.88 -0.26297,0.65002 -0.46211,-0.11424 -0.44255,-1.69824 z m -0.96,-19.2 c 0.0196,-1.584 0.23472,-2.11578 0.47812,-1.18173 0.2434,0.93405 0.2274,2.23005 -0.0356,2.87997 -0.26297,0.65002 -0.46211,-0.11424 -0.44255,-1.69824 z m 226.52445,-1.44 c 0,-1.32 0.2179,-1.86 0.4842,-1.2 0.2663,0.66 0.2663,1.74 0,2.4 -0.2663,0.66 -0.4842,0.12 -0.4842,-1.2 z m -0.96,-15.36 c 0,-1.32 0.2179,-1.86 0.4842,-1.2 0.2663,0.66 0.2663,1.74 0,2.4 -0.2663,0.66 -0.4842,0.12 -0.4842,-1.2 z M 865.14715,938.4 c 0.0196,-1.584 0.23472,-2.11578 0.47812,-1.18173 0.2434,0.93405 0.2274,2.23005 -0.0356,2.88 -0.26297,0.64995 -0.46211,-0.11427 -0.44255,-1.69827 z m 102.786,-3.08888 c 1.4593,-0.22066 3.6193,-0.21476 4.8,0.0131 1.1808,0.22786 -0.0134,0.4084 -2.65315,0.4012 -2.64,-0.008 -3.60605,-0.19365 -2.14685,-0.4143 z m 53.27805,0.01 c 1.1942,-0.22962 2.9222,-0.2209 3.84,0.0194 0.9178,0.24028 -0.06,0.42816 -2.1712,0.41751 -2.112,-0.0107 -2.863,-0.20726 -1.6688,-0.43688 z m -75.35293,-0.9463 c 0.93405,-0.2434 2.23005,-0.22739 2.88,0.0356 0.64995,0.26297 -0.11427,0.46211 -1.69827,0.44255 -1.584,-0.0196 -2.11578,-0.23472 -1.18173,-0.47812 z M 924.678,440.88907 c 3.5409,-0.18418 9.5889,-0.18541 13.44,-0.003 3.8511,0.18269 0.954,0.33338 -6.438,0.33488 -7.392,0.002 -10.5429,-0.14798 -7.002,-0.33215 z m 88.32,0 c 3.5409,-0.18418 9.5889,-0.18541 13.44,-0.003 3.8511,0.18269 0.954,0.33338 -6.438,0.33488 -7.392,0.002 -10.5429,-0.14798 -7.002,-0.33215 z m 60.762,-6.10316 c -2.64,-1.52363 -5.988,-2.77377 -7.44,-2.77808 -2.5778,-0.008 -2.64,-0.13991 -2.64,-5.61587 0,-5.60804 0,-5.60804 4.08,-6.80009 2.244,-0.65563 6.78,-2.65984 10.08,-4.4538 3.5795,-1.94588 5.9878,-2.78496 5.9699,-2.07991 -0.077,3.01702 -3.6528,21.70787 -4.404,23.02028 -0.7298,1.27489 -1.5047,1.0975 -5.6459,-1.29253 z m -205.72392,-1.70723 c -0.54732,-1.91328 -1.27047,-5.42268 -1.60699,-7.79868 -0.33653,-2.376 -0.83634,-5.49561 -1.1107,-6.93246 l -0.49885,-2.61245 5.59024,1.9915 c 3.54331,1.26229 8.22656,2.03733 12.79022,2.11666 3.96,0.0688 6.012,0.26897 4.56,0.44472 -2.54748,0.30836 -2.64,0.51919 -2.64,6.01579 V 432 l -4.08,0.0115 c -2.51131,0.007 -5.60424,0.88323 -8.0444,2.27867 l -3.96438,2.26711 -0.99514,-3.47867 z M 1049.04,420.80421 c 0.66,-0.26631 1.74,-0.26631 2.4,0 0.66,0.26631 0.12,0.48422 -1.2,0.48422 -1.32,0 -1.86,-0.21791 -1.2,-0.48422 z m 8.64,0 c 0.66,-0.26631 1.74,-0.26631 2.4,0 0.66,0.26631 0.12,0.48422 -1.2,0.48422 -1.32,0 -1.86,-0.21791 -1.2,-0.48422 z M 1069.3999,376.08 c 3.9782,-4.23858 4.8401,-5.00073 4.8401,-4.27988 0,0.15407 -2.052,2.20607 -4.56,4.56 l -4.56,4.27988 z M 882.72,319.68 c 2.06231,-2.112 3.96566,-3.84 4.22966,-3.84 0.264,0 -1.20735,1.728 -3.26966,3.84 -2.06231,2.112 -3.96566,3.84 -4.22966,3.84 -0.264,0 1.20735,-1.728 3.26966,-3.84 z m 90.48,-38.07579 c 0.66,-0.26631 1.74,-0.26631 2.4,0 0.66,0.26631 0.12,0.48422 -1.2,0.48422 -1.32,0 -1.86,-0.21791 -1.2,-0.48422 z m 24.96,0 c 0.66,-0.26631 1.74,-0.26631 2.4,0 0.66,0.26631 0.12,0.48422 -1.2,0.48422 -1.32,0 -1.86,-0.21791 -1.2,-0.48422 z"
                 id="path851"
                 sodipodi:nodetypes="sssssssssssssssssssssssssssssssssssssssssssssssssssssssssssssssssssssssssssssssssssssssssssssssssssssssssscscccsssssssssssssssssssssssssssssssssssssssscscccsssssssssssssssssssssssssssssscscccssssssssssssssssssssssssssssssssssssssssssssssssssssssscsssssssssssssssssssssssssssssssscsssscssccsssssssssssscssssssssssssss" />
              <path
                 style="fill:#02285e;stroke-width:0.96"
                 d="m 1038.72,1499.5796 c -2.376,-0.4421 -6.2067,-1.3146 -8.5127,-1.939 l -4.1927,-1.1353 0.5781,-13.6127 c 0.318,-7.4869 1.0966,-62.7679 1.7304,-122.8466 l 1.1523,-109.2339 -7.4955,-60.6861 c -4.1225,-33.3773 -11.6635,-94.382 -16.7578,-135.566 l -9.26223,-74.88 -13.6799,-0.2665 c -10.44423,-0.20342 -13.77274,0.024 -14.07255,0.96 -0.2159,0.6746 -1.09612,48.7465 -1.956,106.8265 l -1.56345,105.6 -22.78445,151.585 c -21.73804,144.6232 -22.8804,151.6205 -24.87362,152.3578 -4.69344,1.7363 -24.16893,2.67 -35.98858,1.7254 -6.56842,-0.5249 -12.9951,-1.259 -14.2815,-1.6313 l -2.33891,-0.6769 7.6462,-134.4 7.64619,-134.4 -7.32124,-149.2554 c -4.02668,-82.09049 -7.15193,-149.42472 -6.945,-149.63165 0.20692,-0.20694 7.41799,0.31613 16.02458,1.16238 13.7266,1.34967 24.08197,2.22823 46.36836,3.93396 35.41373,2.71045 97.1157,2.97312 122.4,0.52106 9.2006,-0.89227 28.6131,-3.65888 38.4163,-5.47497 l 2.4162,-0.44763 8.7737,144.31615 8.7736,144.3161 -5.1872,52.32 c -2.8528,28.776 -8.865,90.12 -13.3602,136.32 -4.4952,46.2 -8.4178,85.5929 -8.717,87.5399 -0.5391,3.5091 -0.6039,3.5539 -7.4296,5.1345 -7.799,1.806 -28.6991,2.6759 -35.2058,1.4652 z M 933.41027,467.50868 c -2.21998,-0.89402 -5.09027,-5.51381 -5.09027,-8.19289 0,-2.6914 3.11786,-7.02138 5.87954,-8.16531 9.06442,-3.7546 16.51173,7.56595 9.5543,14.52336 -2.90397,2.90397 -6.22562,3.4932 -10.34357,1.83484 z m 74.51593,-1.83484 c -7.0177,-7.01766 0.5012,-18.27324 9.6699,-14.47547 2.4705,1.02335 5.7639,5.88089 5.7639,8.50155 0,2.40178 -2.4972,6.14927 -4.9392,7.41208 -4.1168,2.12886 -7.374,1.68251 -10.4946,-1.43816 z M 917.44,446.72 c -0.352,-0.352 -0.64,-1.65925 -0.64,-2.905 0,-2.26501 0,-2.26501 14.62789,-2.00001 13.4392,0.24348 14.65606,0.41169 14.97446,2.06997 0.19061,0.99274 -0.23594,2.17412 -0.9479,2.62531 -1.51628,0.96091 -27.07195,1.15224 -28.01445,0.20973 z m 88.7855,-0.1953 c -0.7119,-0.45912 -1.1384,-1.647 -0.9479,-2.63974 0.3186,-1.65875 1.5369,-1.82645 15.0407,-2.07032 l 14.6941,-0.26537 -0.3062,2.66537 -0.3062,2.66536 -13.44,0.23974 c -7.392,0.13186 -14.0225,-0.13591 -14.7345,-0.59504 z m 41.8948,-25.97222 c -2.4858,-0.34748 -4.7275,-0.83966 -4.9815,-1.09374 -0.7884,-0.78831 9.7735,-21.01505 15.2267,-29.1606 6.1856,-9.23934 17.7231,-20.79423 26.706,-26.74623 7.1619,-4.74546 16.6887,-8.99175 17.763,-7.91734 0.3771,0.37707 0.6588,5.07755 0.6263,10.4455 -0.1527,25.1286 -14.6066,47.12085 -34.9808,53.22437 -4.6082,1.3805 -14.8992,2.01134 -20.3597,1.24804 z M 878.4,419.81678 c -12.97794,-2.17246 -24.80222,-11.04853 -28.26789,-21.21972 -3.28362,-9.6369 -0.31753,-25.54165 8.02032,-43.00646 6.78222,-14.20631 13.46827,-23.55285 25.43481,-35.55571 15.80192,-15.84989 30.08959,-24.53063 50.97276,-30.96944 20.10495,-6.19888 46.93843,-8.91454 68.16,-6.89809 10.5484,1.00228 31.9473,5.10998 34.7842,6.67709 0.7411,0.4094 -2.1257,2.9779 -7.6619,6.86485 -10.6977,7.51076 -28.5347,24.5127 -36.73036,35.0107 -8.63338,11.05866 -17.73092,25.42556 -23.74791,37.50251 -5.63222,11.30482 -10.90289,24.15863 -10.19602,24.86549 0.23981,0.23982 10.53615,3.91217 22.88079,8.16077 12.34454,4.2486 22.652,7.93202 22.9053,8.18537 0.8466,0.84658 -6.07708,3.21076 -14.25685,4.86819 -6.16531,1.24926 -10.72983,1.50708 -19.15565,1.082 -12.85199,-0.64838 -21.09372,-2.78827 -31.94525,-8.2943 l -7.49488,-3.80288 -9.91358,5.24697 c -12.51528,6.62397 -21.82446,9.79815 -32.23479,10.99119 -4.5062,0.51641 -8.4091,0.88365 -8.6731,0.81608 -0.264,-0.0676 -1.56,-0.30364 -2.88,-0.52461 z"
                 id="path849"
                 sodipodi:nodetypes="sscsscsscssscsssscccsssssscccsssssssssssssssssssssssscccsssssssssssssssssssssssssscssss" />
            </g>
          </g>
        </g>
      </g>
    </g>
  </g>
</svg>
