<?xml version="1.0" encoding="UTF-8" standalone="no"?>
<svg
   xmlns:dc="http://purl.org/dc/elements/1.1/"
   xmlns:cc="http://creativecommons.org/ns#"
   xmlns:rdf="http://www.w3.org/1999/02/22-rdf-syntax-ns#"
   xmlns:svg="http://www.w3.org/2000/svg"
   xmlns="http://www.w3.org/2000/svg"
   xmlns:sodipodi="http://sodipodi.sourceforge.net/DTD/sodipodi-0.dtd"
   xmlns:inkscape="http://www.inkscape.org/namespaces/inkscape"
   width="21.941719mm"
   height="30.843714mm"
   viewBox="0 0 21.941719 30.843714"
   version="1.1"
   id="svg8"
   inkscape:version="1.0.2-2 (e86c870879, 2021-01-15)"
   sodipodi:docname="balloon_red.svg">
  <defs
     id="defs2">
    <clipPath
       clipPathUnits="userSpaceOnUse"
       id="clipPath851">
      <path
         d="M 0,500 H 500 V 0 H 0 Z"
         id="path849" />
    </clipPath>
    <clipPath
       clipPathUnits="userSpaceOnUse"
       id="clipPath1277">
      <path
         d="M 0,500 H 500 V 0 H 0 Z"
         id="path1275" />
    </clipPath>
  </defs>
  <sodipodi:namedview
     id="base"
     pagecolor="#ffffff"
     bordercolor="#666666"
     borderopacity="1.0"
     inkscape:pageopacity="0.0"
     inkscape:pageshadow="2"
     inkscape:zoom="0.98994949"
     inkscape:cx="290.4347"
     inkscape:cy="102.94986"
     inkscape:document-units="mm"
     inkscape:current-layer="g847"
     inkscape:document-rotation="0"
     showgrid="false"
     inkscape:window-width="1920"
     inkscape:window-height="1017"
     inkscape:window-x="-8"
     inkscape:window-y="32"
     inkscape:window-maximized="1"
     fit-margin-top="0"
     fit-margin-left="0"
     fit-margin-right="0"
     fit-margin-bottom="0" />
  <metadata
     id="metadata5">
    <rdf:RDF>
      <cc:Work
         rdf:about="">
        <dc:format>image/svg+xml</dc:format>
        <dc:type
           rdf:resource="http://purl.org/dc/dcmitype/StillImage" />
        <dc:title></dc:title>
      </cc:Work>
    </rdf:RDF>
  </metadata>
  <g
     inkscape:label="Livello 1"
     inkscape:groupmode="layer"
     id="layer1"
     transform="translate(-43.824964,-68.419376)">
    <g
       id="g841"
       inkscape:label="251177-P4G0V2-586"
       transform="matrix(0.35277777,0,0,-0.35277777,18.394843,225.77778)">
      <g
         id="g845">
        <g
           id="g847"
           clip-path="url(#clipPath851)">
          <g
             id="g853"
             transform="translate(281.53682,408.37292)">
            <path
               d="m 0,0 c 0,-37.175 -30.137,-67.311 -67.312,-67.311 -37.175,0 -67.311,30.136 -67.311,67.311 0,37.175 22.961,66.926 60.136,66.926 C -37.312,66.926 0,37.175 0,0"
               style="fill:#ffbc4f;fill-opacity:1;fill-rule:nonzero;stroke:none"
               id="path855" />
          </g>
          <g
             id="g857"
             transform="translate(19.8896,212.1436)">
            <path
               d="M 0,0 H -19.89 V -50.715 L 0.753,-52.95 0.039,-2.833"
               style="fill:#303030;fill-opacity:1;fill-rule:nonzero;stroke:none"
               id="path859" />
          </g>
          <g
             id="g861"
             transform="translate(500,313.4604)">
            <path
               d="m 0,0 -12.644,-0.331 -1.472,-51.769 -26.793,1.389 -0.525,67.451 h -34.225 v -71.054 l -114.83,6.566 -1.939,47.417 L -210.059,0 -210.869,-83.672 0,-133.033 Z"
               style="fill:#303030;fill-opacity:1;fill-rule:nonzero;stroke:none"
               id="path863" />
          </g>
          <g
             id="g865"
             transform="translate(421.4971,329.2363)">
            <path
               d="m 0,0 39.442,-0.499 c 0,0 -3.223,22.645 -19.082,22.645 C 2.083,22.146 0,0 0,0"
               style="fill:#303030;fill-opacity:1;fill-rule:nonzero;stroke:none"
               id="path867" />
          </g>
          <g
             id="g869"
             transform="translate(446.3437,346.0298)">
            <path
               d="m 0,0 c 0,-4.558 -2.585,-8.253 -5.774,-8.253 -3.189,0 -5.774,3.695 -5.774,8.253 0,4.558 2.585,8.252 5.774,8.252 C -2.585,8.252 0,4.558 0,0"
               style="fill:#303030;fill-opacity:1;fill-rule:nonzero;stroke:none"
               id="path871" />
          </g>
          <g
             id="g873"
             transform="translate(439.6973,353.6353)">
            <path
               d="M 0,0 V 8.69 H 1.189 L 1.623,0 Z"
               style="fill:#303030;fill-opacity:1;fill-rule:nonzero;stroke:none"
               id="path875" />
          </g>
          <g
             id="g877"
             transform="translate(436.9707,360.0249)">
            <path
               d="M 0,0 H 6.906 V -1.464 L 0,-1.074 Z"
               style="fill:#303030;fill-opacity:1;fill-rule:nonzero;stroke:none"
               id="path879" />
          </g>
          <g
             id="g881"
             transform="translate(35.0586,161.6357)">
            <path
               d="m 0,0 v 93.669 c 0,0 110.147,48.569 259.323,0 L 255.854,0 Z"
               style="fill:#303030;fill-opacity:1;fill-rule:nonzero;stroke:none"
               id="path883" />
          </g>
          <g
             id="g885"
             transform="translate(112.2485,265.7124)">
            <path
               d="m 0,0 v 39.095 l 97.808,-5.27 V 0 Z"
               style="fill:#303030;fill-opacity:1;fill-rule:nonzero;stroke:none"
               id="path887" />
          </g>
          <g
             id="g889"
             transform="translate(118.7095,299.5615)">
            <path
               d="M 0,0 V 13.899 H 82.401 V -4.302 Z"
               style="fill:#303030;fill-opacity:1;fill-rule:nonzero;stroke:none"
               id="path891" />
          </g>
          <g
             id="g893"
             transform="translate(120.3643,310.4824)">
            <path
               d="M 0,0 V 6.949 H 3.971 V -1.655 Z"
               style="fill:#303030;fill-opacity:1;fill-rule:nonzero;stroke:none"
               id="path895" />
          </g>
          <path
             d="m 198.794,317.432 h -4.302 v -8.604 h 4.302 z"
             style="fill:#303030;fill-opacity:1;fill-rule:nonzero;stroke:none"
             id="path897" />
          <path
             d="m 156.766,325.374 h 10.259 v -16.546 h -10.259 z"
             style="fill:#303030;fill-opacity:1;fill-rule:nonzero;stroke:none"
             id="path899" />
          <g
             id="g901"
             transform="translate(159.9102,324.3237)">
            <path
               d="m 0,0 v 6.263 c 0,0 -2.581,2.908 -2.022,4.922 0,0 -3.803,1.677 -3.132,5.033 0,0 -8.659,4.586 -0.079,3.132 0,0 2.428,-0.336 2.987,-2.685 C -1.687,14.316 0,14.316 0,14.316 c 0,0 -0.72,3.915 1.146,4.474 1.865,0.56 2.872,-2.572 2.872,-4.026 0,0 1.789,-0.336 2.349,0.671 0.559,1.006 4.585,-0.448 5.257,-1.678 0.67,-1.23 -4.509,-0.671 -4.509,-0.671 0,0 -0.189,-1.006 -2.426,-1.678 0,0 0.112,-4.362 -1.566,-5.033 L 4.689,0 Z"
               style="fill:#303030;fill-opacity:1;fill-rule:nonzero;stroke:none"
               id="path903" />
          </g>
          <g
             id="g905"
             transform="translate(161.4448,340.7651)">
            <path
               d="M 0,0 0.56,27.402 H 1.083 L 1.507,-0.572 Z"
               style="fill:#303030;fill-opacity:1;fill-rule:nonzero;stroke:none"
               id="path907" />
          </g>
          <g
             id="g909"
             transform="translate(228.5142,177.0547)">
            <path
               d="m 0,0 h 29.932 l 1.185,-22.181 -29.2,1.563 z"
               style="fill:#ff5046;fill-opacity:1;fill-rule:nonzero;stroke:none"
               id="path911" />
          </g>
          <g
             id="g913"
             transform="translate(479.207,191.8643)">
            <path
               d="M 0,0 H 20.793 V -35.76 L 2.084,-33.387 Z"
               style="fill:#ff5046;fill-opacity:1;fill-rule:nonzero;stroke:none"
               id="path915" />
          </g>
          <g
             id="g917"
             transform="translate(26.4731,255.6909)">
            <path
               d="m 0,0 c 0,0 -1.238,-3.459 0.518,-7.668 0,0 -2.208,-0.901 -2.323,-0.651 -0.115,0.25 -2.688,7.438 -2.688,7.438 z"
               style="fill:#ffbc4f;fill-opacity:1;fill-rule:nonzero;stroke:none"
               id="path919" />
          </g>
          <g
             id="g921"
             transform="translate(42.2324,260.8594)">
            <path
               d="m 0,0 c 0,0 -3.077,10.962 1.049,11.82 l -3.754,1.099 -4.37,-5.258 4.076,-9.374 z"
               style="fill:#ffbc4f;fill-opacity:1;fill-rule:nonzero;stroke:none"
               id="path923" />
          </g>
          <g
             id="g925"
             transform="translate(93.4785,230.1904)">
            <path
               d="m 0,0 c 0,0 -12.813,-4.878 -6.332,-26.235 l -7.943,0.808 -0.03,24.002 8.302,3.511 z"
               style="fill:#ffbc4f;fill-opacity:1;fill-rule:nonzero;stroke:none"
               id="path927" />
          </g>
          <g
             id="g929"
             transform="translate(71.6626,226.5752)">
            <path
               d="m 0,0 c 0,0 -9.455,-0.739 -4.786,-26.555 l -5.819,0.629 -0.027,21.548 5.43,4.916 z"
               style="fill:#ffbc4f;fill-opacity:1;fill-rule:nonzero;stroke:none"
               id="path931" />
          </g>
          <g
             id="g933"
             transform="translate(56.5747,222.6465)">
            <path
               d="m 0,0 c 0,0 -7.902,-6.102 -5.15,-25.827 l -4.82,0.812 0.517,23.094 7.814,3.762 z"
               style="fill:#ffbc4f;fill-opacity:1;fill-rule:nonzero;stroke:none"
               id="path935" />
          </g>
          <g
             id="g937"
             transform="translate(41.125,217.627)">
            <path
               d="m 0,0 c 0,0 -5.715,-7.826 -0.969,-23.821 l -5.55,1.719 0.34,19.185 3.996,3.346 z"
               style="fill:#ffbc4f;fill-opacity:1;fill-rule:nonzero;stroke:none"
               id="path939" />
          </g>
          <g
             id="g941"
             transform="translate(31.8564,213.5244)">
            <path
               d="m 0,0 c 0,0 -2.679,-6.913 -2.363,-21.096 l -2.067,0.543 -0.899,19 z"
               style="fill:#ffbc4f;fill-opacity:1;fill-rule:nonzero;stroke:none"
               id="path943" />
          </g>
          <g
             id="g945"
             transform="translate(24.7178,206.8789)">
            <path
               d="m 0,0 c 0,0 -2.485,-4.367 -2.015,-17.005 l -2.774,0.36 0.936,15.673 z"
               style="fill:#ffbc4f;fill-opacity:1;fill-rule:nonzero;stroke:none"
               id="path947" />
          </g>
          <g
             id="g949"
             transform="translate(25.3501,181.3311)">
            <path
               d="M 0,0 C 0,0 -2.181,-1.003 -1.979,-17.004 L -4.707,-17.007 -3.82,1.269 Z"
               style="fill:#ffbc4f;fill-opacity:1;fill-rule:nonzero;stroke:none"
               id="path951" />
          </g>
          <g
             id="g953"
             transform="translate(32.9839,183.7959)">
            <path
               d="m 0,0 c 0,0 -4.539,-5.825 -1.885,-19.459 l -4.513,-0.006 1.127,18.277 4.179,2.459 z"
               style="fill:#ffbc4f;fill-opacity:1;fill-rule:nonzero;stroke:none"
               id="path955" />
          </g>
          <g
             id="g957"
             transform="translate(42.8018,185.0801)">
            <path
               d="m 0,0 c 0,0 -4.991,-8.188 -2.429,-21.277 l -4.546,-0.006 -0.024,19.911 z"
               style="fill:#ffbc4f;fill-opacity:1;fill-rule:nonzero;stroke:none"
               id="path959" />
          </g>
          <g
             id="g961"
             transform="translate(55.8911,187.1875)">
            <path
               d="m 0,0 c 0,0 -6.265,-6.917 -2.517,-23.369 l -5.273,-0.006 -0.027,22.002 5.451,2.825 z"
               style="fill:#ffbc4f;fill-opacity:1;fill-rule:nonzero;stroke:none"
               id="path963" />
          </g>
          <g
             id="g965"
             transform="translate(70.9805,189.9336)">
            <path
               d="m 0,0 c 0,0 -8.172,-9.102 -2.604,-27.006 l -7.273,-0.009 1.698,23.913 6.996,3.646 z"
               style="fill:#ffbc4f;fill-opacity:1;fill-rule:nonzero;stroke:none"
               id="path967" />
          </g>
          <g
             id="g969"
             transform="translate(91.3057,191.7773)">
            <path
               d="m 0,0 c 0,0 -9.139,-5.103 -5.381,-29.282 l -7.911,0.444 1.201,32.551 z"
               style="fill:#ffbc4f;fill-opacity:1;fill-rule:nonzero;stroke:none"
               id="path971" />
          </g>
          <g
             id="g973"
             transform="translate(116.8008,191.9902)">
            <path
               d="m 0,0 c 0,0 -8.261,-10.745 -5.237,-29.831 l -7.546,0.357 -0.392,22.816 6.083,7.104 z"
               style="fill:#ffbc4f;fill-opacity:1;fill-rule:nonzero;stroke:none"
               id="path975" />
          </g>
          <g
             id="g977"
             transform="translate(209.6504,203.4561)">
            <path
               d="M 0,0 C 0,0 1.985,-6.381 0.749,-16.27 L 3.663,-16.267 3.331,0.004 Z"
               style="fill:#ffbc4f;fill-opacity:1;fill-rule:nonzero;stroke:none"
               id="path979" />
          </g>
          <g
             id="g981"
             transform="translate(203.6094,207.1602)">
            <path
               d="m 0,0 c 0,0 1.88,-5.722 0.647,-18.42 l 2.707,0.003 0.496,19.15 z"
               style="fill:#ffbc4f;fill-opacity:1;fill-rule:nonzero;stroke:none"
               id="path983" />
          </g>
          <g
             id="g985"
             transform="translate(195.5928,209.5449)">
            <path
               d="m 0,0 c 0,0 3.338,-6.137 0.543,-18.838 l 4.476,0.006 0.806,21.44 z"
               style="fill:#ffbc4f;fill-opacity:1;fill-rule:nonzero;stroke:none"
               id="path987" />
          </g>
          <g
             id="g989"
             transform="translate(186.9512,212.1357)">
            <path
               d="m 0,0 c 0.312,-0.208 3.753,-5.095 2.002,-20.084 l 2.29,0.003 1.849,20.089 z"
               style="fill:#ffbc4f;fill-opacity:1;fill-rule:nonzero;stroke:none"
               id="path991" />
          </g>
          <g
             id="g993"
             transform="translate(176.4365,214.4121)">
            <path
               d="M 0,0 C 0,0 4.169,-4.782 1.17,-20.397 L 5.75,-20.392 5.723,1.36 Z"
               style="fill:#ffbc4f;fill-opacity:1;fill-rule:nonzero;stroke:none"
               id="path995" />
          </g>
          <g
             id="g997"
             transform="translate(160.1929,220.8447)">
            <path
               d="m 0,0 c 0,0 6.047,-8.422 3.46,-21.227 l 3.539,0.525 2.056,20.714 z"
               style="fill:#ffbc4f;fill-opacity:1;fill-rule:nonzero;stroke:none"
               id="path999" />
          </g>
          <g
             id="g1001"
             transform="translate(177.3027,187.1455)">
            <path
               d="M 0,0 C 0,0 4.686,-1.451 2.057,-22.374 L 7.001,-22.367 6.973,0.009 Z"
               style="fill:#ffbc4f;fill-opacity:1;fill-rule:nonzero;stroke:none"
               id="path1003" />
          </g>
          <g
             id="g1005"
             transform="translate(187.5044,185.4346)">
            <path
               d="M 0,0 C 0,0 3.966,-8.679 1.587,-20.65 L 5.646,-20.646 4.995,1.001 Z"
               style="fill:#ffbc4f;fill-opacity:1;fill-rule:nonzero;stroke:none"
               id="path1007" />
          </g>
          <g
             id="g1009"
             transform="translate(196.8745,182.7988)">
            <path
               d="M 0,0 C 0,0 3.961,-4.783 1.687,-18.004 L 5.539,-17.999 4.578,0.942 Z"
               style="fill:#ffbc4f;fill-opacity:1;fill-rule:nonzero;stroke:none"
               id="path1011" />
          </g>
          <g
             id="g1013"
             transform="translate(204.3687,182.1836)">
            <path
               d="M 0,0 C 0,0 1.982,-3.433 1.687,-17.379 L 4.185,-17.376 3.122,0.732 Z"
               style="fill:#ffbc4f;fill-opacity:1;fill-rule:nonzero;stroke:none"
               id="path1015" />
          </g>
          <g
             id="g1017"
             transform="translate(210.8218,182.0869)">
            <path
               d="M 0,0 C 0,0 2.302,-9.988 1.375,-17.587 L 4.704,-16.438 3.225,0.837 Z"
               style="fill:#ffbc4f;fill-opacity:1;fill-rule:nonzero;stroke:none"
               id="path1019" />
          </g>
          <g
             id="g1021"
             transform="translate(155.7583,187.9521)">
            <path
               d="M 0,0 C 0,0 5.894,-3.247 4.608,-23.516 L 9.188,-24.343 8.742,0.011 Z"
               style="fill:#ffbc4f;fill-opacity:1;fill-rule:nonzero;stroke:none"
               id="path1023" />
          </g>
          <g
             id="g1025"
             transform="translate(39.5889,227.3926)">
            <path
               d="m 0,0 c 0,0 -2.386,17.753 4.81,18.918 l -1.841,1.731 -6.773,-2.635 0.28,-14.657 1.319,-4.516 z"
               style="fill:#ffbc4f;fill-opacity:1;fill-rule:nonzero;stroke:none"
               id="path1027" />
          </g>
          <g
             id="g1029"
             transform="translate(50.7197,232.8164)">
            <path
               d="M 0,0 C 0,0 -1.388,17.86 3.231,21.228 L -3.073,20.905 -5.796,14.388 -3.84,4.33 l 1.371,-4.918 2.732,0.536 z"
               style="fill:#ffbc4f;fill-opacity:1;fill-rule:nonzero;stroke:none"
               id="path1031" />
          </g>
          <g
             id="g1033"
             transform="translate(69.1646,238.9893)">
            <path
               d="M 0,0 C 0,0 -3.505,19.903 3.217,21.907 L -3.823,21.898 -8.697,13.067 -6.21,-1.587 Z"
               style="fill:#ffbc4f;fill-opacity:1;fill-rule:nonzero;stroke:none"
               id="path1035" />
          </g>
          <g
             id="g1037"
             transform="translate(31.2417,222.7588)">
            <path
               d="M 0,0 C 0,0 -3.801,15.125 1.134,17.601 L -4.119,17.331 -4.74,9.766 -4.094,-2.895 Z"
               style="fill:#ffbc4f;fill-opacity:1;fill-rule:nonzero;stroke:none"
               id="path1039" />
          </g>
          <g
             id="g1041"
             transform="translate(23.9321,218.1855)">
            <path
               d="M 0,0 C 0,0 -2.128,11.338 0.754,14.014 L -2.877,12.192 -4.042,3.746 -2.86,-1.489 Z"
               style="fill:#ffbc4f;fill-opacity:1;fill-rule:nonzero;stroke:none"
               id="path1043" />
          </g>
          <g
             id="g1045"
             transform="translate(136.4956,161.8027)">
            <path
               d="M 0,0 1.786,0.057 -27.732,-0.874 Z"
               style="fill:#ffbc4f;fill-opacity:1;fill-rule:nonzero;stroke:none"
               id="path1047" />
          </g>
          <g
             id="g1049"
             transform="translate(210.7363,166.1953)">
            <path
               d="M 0,0 C 0,0 -0.96,14.51 0.735,14.794 2.431,15.079 2.827,-0.373 2.827,-0.373 Z m -3.635,-0.381 -3.237,-0.004 c 0,0 -2.34,14.225 0.862,15.642 3.201,1.417 2.375,-15.638 2.375,-15.638 m -3.253,40.394 c 3.049,0.591 1.991,-12.695 1.73,-15.545 -1.085,0.321 -2.258,0.661 -3.504,1.013 -0.34,3.735 -1.015,13.992 1.774,14.532 m -3.242,-40.402 -4.438,-0.006 c 0,0 -1.17,16.017 1.807,16.303 2.978,0.286 2.631,-16.297 2.631,-16.297 m -4.077,43.025 c 3.762,0.338 2.441,-13.905 2.201,-16.232 -1.433,0.386 -2.933,0.778 -4.481,1.165 -0.371,4.015 -1.05,14.768 2.28,15.067 M -18.923,-0.4 -24.65,-0.407 c 0,0 -1.719,18.277 2.333,18.282 4.052,0.005 3.394,-18.275 3.394,-18.275 m -4.359,45.325 c 3.644,0.433 3.337,-12.173 3.128,-16.467 -2.034,0.476 -4.122,0.935 -6.226,1.357 -0.219,3.917 -0.489,14.683 3.098,15.11 m -4.76,-45.336 -9.234,-0.012 c 0,0 -2.755,18.746 4.216,19.651 6.971,0.904 5.018,-19.639 5.018,-19.639 m -16.197,37.182 c -1.827,0.219 -5.312,0.631 -9.778,1.128 -0.107,4.054 -0.029,16.062 4.68,15.256 5.308,-0.908 5.139,-14.678 5.098,-16.384 m -3.495,-37.772 -12.343,-0.58 c 0,0 -2.853,21.856 4.778,22.431 7.632,0.575 7.565,-21.851 7.565,-21.851 m 14.402,48.18 c 4.261,-0.796 3.314,-11.767 2.691,-16.562 -1.963,0.342 -3.918,0.642 -5.836,0.886 -0.481,4.899 -1.172,16.483 3.145,15.676 m 33.12,-10.751 c 1.673,0.532 1.467,-12.707 1.444,-13.937 -0.767,0.249 -1.825,0.587 -3.12,0.988 0.026,3.214 0.226,12.487 1.676,12.949 m -101.28,39.756 0.842,-13.772 3.575,-7.016 c 0.609,0.495 1.298,0.852 2.082,1.019 4.873,1.04 6.74,-8.954 7.359,-13.869 l 4.249,0.005 2.146,-1.512 c -0.323,5.224 -0.151,14.815 5.365,15.475 6.333,0.757 8.086,-12.68 8.496,-17.203 -4.247,0.422 -8.717,0.84 -13.124,1.21 l 2.453,-1.729 0.046,-1.058 0.244,-5.635 0.215,-4.967 2.487,-6.003 c 0.46,0.101 0.948,0.16 1.464,0.169 8.801,0.16 8.895,-14.232 8.549,-20.27 l 3.586,-5.017 66.834,-1.278 -0.063,54.548 c 0,0 -30.309,38.448 -106.805,26.903"
               style="fill:#ff5046;fill-opacity:1;fill-rule:nonzero;stroke:none"
               id="path1051" />
          </g>
          <g
             id="g1053"
             transform="translate(138.2817,161.8594)">
            <path
               d="M 0,0 4.276,0.135 Z"
               style="fill:#ffbc4f;fill-opacity:1;fill-rule:nonzero;stroke:none"
               id="path1055" />
          </g>
          <g
             id="g1057"
             transform="translate(65.7231,288.8389)">
            <path
               d="M 0,0 -0.004,2.983 -3.49,3.417 -3.485,-0.004 Z"
               style="fill:#ffbc4f;fill-opacity:1;fill-rule:nonzero;stroke:none"
               id="path1059" />
          </g>
          <g
             id="g1061"
             transform="translate(120.2681,163.8926)">
            <path
               d="m 0,0 -12.025,-0.015 -1.856,-0.002 c 0,0 -0.579,5.38 -0.131,11.267 0.484,6.34 2.16,13.267 7.039,14.689 C 2.437,28.683 0,0 0,0 m -23.149,-0.028 -17.039,-0.021 c 0,0 -2.337,23.213 8.708,26.142 11.043,2.928 8.331,-26.121 8.331,-26.121 m -8.6,65.541 c 11.8,2.55 7.929,-22.231 7.929,-22.231 0,0 -15.218,-0.018 -15.803,-0.019 0,0 -3.926,19.699 7.874,22.25 M -43.373,78.18 -56.226,75.043 c 0,0 -3.747,16.968 4.834,19.271 11.307,3.035 8.019,-16.134 8.019,-16.134 m -1.593,-78.235 -11.972,-0.014 c 0,0 -2.363,21.652 5.956,24.393 8.318,2.742 6.016,-24.379 6.016,-24.379 m -7.556,61.641 c 8.385,3.132 7.473,-19.695 7.473,-19.695 l -12.877,-1.967 c 0,0 -2.981,18.53 5.404,21.662 m -9.539,-22.819 -9.933,-1.788 c 0,0 -1.979,16.971 4.942,20.492 6.922,3.52 4.991,-18.704 4.991,-18.704 M -62.983,1.288 -70.787,1.279 c 0,0 -0.805,20.484 4.657,21.075 5.462,0.593 3.147,-21.066 3.147,-21.066 m -12.763,66.122 -6.823,-3.602 c 0,0 -2.556,16.077 3.392,17.644 5.948,1.569 3.431,-14.042 3.431,-14.042 M -76.25,1.272 -83.029,1.264 c 0,0 -0.655,17.363 3.366,18.928 4.022,1.566 3.413,-18.92 3.413,-18.92 m -4.647,51.109 c 5.363,1.567 3.044,-16.579 3.044,-16.579 l -6.045,-2.154 c 0,0 -2.362,17.165 3.001,18.733 m -5.182,9.358 -5.068,-3.128 c 0,0 -3.919,13.848 1.345,16.39 5.265,2.543 3.723,-13.262 3.723,-13.262 m -6.425,-30.247 c 0,0 0.005,15.803 3.318,16.977 3.313,1.175 2.362,-14.824 2.362,-14.824 z M -86.652,1.26 -92.467,1.252 c 0,0 -0.191,16.583 3.317,17.953 3.508,1.37 2.498,-17.945 2.498,-17.945 m -6.556,84.817 -1.263,-1.287 c 0,0 -1.761,5.208 -0.007,5.814 1.754,0.606 1.27,-4.527 1.27,-4.527 M -94.852,56.852 -98.75,53.92 c 0,0 -1.771,11.704 1.935,13.017 3.705,1.312 1.963,-10.085 1.963,-10.085 M -95.027,1.249 -98.1,1.245 c 0,0 -0.798,14.631 1.347,15.414 2.145,0.783 1.726,-15.41 1.726,-15.41 m -1.758,40.772 c 2.73,1.174 1.381,-12.289 1.381,-12.289 l -3.73,-1.565 c 0,0 -0.38,12.681 2.349,13.854 m 17.578,63.697 c 2.702,1.363 2.873,-5.733 2.873,-5.733 l -3.425,-1.815 c 0,0 -2.15,6.186 0.552,7.548 m 12.118,-17.813 c 7.313,2.156 4.408,-15.212 4.408,-15.212 l -8.775,-3.131 c 0,0 -2.946,16.188 4.367,18.343 M 20.793,0.71 16.215,8.691 11.479,20.876 7.099,32.144 7.096,34.68 7.085,43.057 7.083,44.854 2.834,44.849 l -2.889,-0.004 -7.038,-0.009 -2.525,7.901 -4.345,13.599 -0.015,11.683 -0.006,4.937 -16.127,-3.12 -6.866,17.268 -0.014,11.732 -4.157,-0.005 -3.664,-0.004 -8.819,16.12 -0.914,-0.001 -3.485,-0.004 -0.005,3.422 c 0,0 -35.187,-6.887 -46.383,-45.03 l 3.431,-85.833 89.483,-0.465 29.518,0.931 4.276,0.135 z"
               style="fill:#ff5046;fill-opacity:1;fill-rule:nonzero;stroke:none"
               id="path1063" />
          </g>
          <g
             id="g1065"
             transform="translate(79.1196,272.7236)">
            <path
               d="m 0,0 -8.374,14.67 -4.108,1.446 8.818,-16.12 z"
               style="fill:#ffbc4f;fill-opacity:1;fill-rule:nonzero;stroke:none"
               id="path1067" />
          </g>
          <g
             id="g1069"
             transform="translate(90.1567,243.7285)">
            <path
               d="M 0,0 3.972,0.769 -3.071,16.893 -3.809,27.145 -6.879,29 -6.865,17.269 Z"
               style="fill:#ffbc4f;fill-opacity:1;fill-rule:nonzero;stroke:none"
               id="path1071" />
          </g>
          <g
             id="g1073"
             transform="translate(113.6616,221.5918)">
            <path
               d="m 0,0 -3.576,7.016 -0.841,13.771 -0.187,3.065 -2.773,1.405 0.006,-4.938 0.014,-11.682 4.346,-13.599 2.524,-7.901 7.038,0.009 z"
               style="fill:#ffbc4f;fill-opacity:1;fill-rule:nonzero;stroke:none"
               id="path1075" />
          </g>
          <g
             id="g1077"
             transform="translate(142.5576,161.9941)">
            <path
               d="M 0,0 0.776,0.024 Z"
               style="fill:#ffbc4f;fill-opacity:1;fill-rule:nonzero;stroke:none"
               id="path1079" />
          </g>
          <g
             id="g1081"
             transform="translate(145.6924,167.2236)">
            <path
               d="m 0,0 -4.005,5.603 -6.008,14.498 -2.487,6.003 -0.215,4.966 -0.245,5.636 -0.045,1.058 -2.453,1.728 -0.737,0.519 -2.146,1.511 0.002,-1.796 0.01,-8.377 0.003,-2.537 4.38,-11.267 4.737,-12.185 4.578,-7.981 1.496,-2.608 0.777,0.024 5.944,0.187 z"
               style="fill:#ffbc4f;fill-opacity:1;fill-rule:nonzero;stroke:none"
               id="path1083" />
          </g>
          <g
             id="g1085"
             transform="translate(209.6504,164.0332)">
            <path
               d="M 0,0 V 40.109 H 30.224 L 32.61,0 Z"
               style="fill:#ff5046;fill-opacity:1;fill-rule:nonzero;stroke:none"
               id="path1087" />
          </g>
          <g
             id="g1089"
             transform="translate(214.4229,199.001)">
            <path
               d="M 0,0 V 149.648 H 17.498 L 21.077,0 Z"
               style="fill:#ff5046;fill-opacity:1;fill-rule:nonzero;stroke:none"
               id="path1091" />
          </g>
          <path
             d="m 209.65,353.193 h 25.849 v -6.134 H 209.65 Z"
             style="fill:#ff5046;fill-opacity:1;fill-rule:nonzero;stroke:none"
             id="path1093" />
          <g
             id="g1095"
             transform="translate(215.2192,351.832)">
            <path
               d="m 0,0 1.414,15.866 c 0,0 8.012,3.613 13.51,-0.943 V 0 Z"
               style="fill:#ff5046;fill-opacity:1;fill-rule:nonzero;stroke:none"
               id="path1097" />
          </g>
          <g
             id="g1099"
             transform="translate(219.5718,367.7056)">
            <path
               d="m 0,0 v 4.491 c 0,0 3.127,1.844 7.057,0 V 0 Z"
               style="fill:#ff5046;fill-opacity:1;fill-rule:nonzero;stroke:none"
               id="path1101" />
          </g>
          <g
             id="g1103"
             transform="translate(221.9775,372.5171)">
            <path
               d="m 0,0 -2.807,2.406 0.401,4.571 -0.401,0.481 c 0,0 0.153,9.704 3.405,10.025 0,0 -0.387,2.677 0.817,2.517 1.202,-0.161 1.344,-0.512 1.568,-2.116 0,0 1.187,-1.043 1.668,-2.567 0.481,-1.523 3.179,-0.561 3.515,0.642 0,0 -1.269,0.401 -0.868,0.722 0.401,0.32 3.609,0.962 3.689,0.481 0.08,-0.481 -2.165,-1.363 -2.165,-1.363 0,0 -0.883,-2.727 -2.807,-2.967 0,0 0.08,-6.416 -0.241,-7.378 L 4.651,5.052 V 2.005 C 4.651,2.005 4.01,0.882 2.646,0 Z"
               style="fill:#ff5046;fill-opacity:1;fill-rule:nonzero;stroke:none"
               id="path1105" />
          </g>
          <g
             id="g1107"
             transform="translate(223.1255,392.022)">
            <path
               d="M 0,0 C 0,0 0.507,1.824 -0.965,1.763 -2.163,1.713 -2.57,2.57 -0.694,2.611 1.183,2.652 3.06,2.938 2.938,2.244 2.815,1.55 1.912,2.072 1.183,1.591 0.595,1.203 0.897,-0.286 0.897,-0.286 1.142,-0.367 0,0 0,0"
               style="fill:#ff5046;fill-opacity:1;fill-rule:nonzero;stroke:none"
               id="path1109" />
          </g>
          <g
             id="g1111"
             transform="translate(252.1211,162.9717)">
            <path
               d="M 0,0 3.087,104.453 H 226.383 L 231.87,0 Z"
               style="fill:#ff5046;fill-opacity:1;fill-rule:nonzero;stroke:none"
               id="path1113" />
          </g>
          <g
             id="g1115"
             transform="translate(258.8135,264.9019)">
            <path
               d="m 0,0 c 0,0 -1.174,10.76 6.848,11.934 0,0 0.391,7.239 4.891,7.044 4.499,-0.196 4.304,-7.239 4.304,-7.239 0,0 7.63,-2.153 6.456,-11.739 z"
               style="fill:#ff5046;fill-opacity:1;fill-rule:nonzero;stroke:none"
               id="path1117" />
          </g>
          <g
             id="g1119"
             transform="translate(476.0781,264.9019)">
            <path
               d="m 0,0 c 0,0 1.174,10.76 -6.848,11.934 0,0 -0.39,7.239 -4.89,7.044 -4.5,-0.196 -4.305,-7.239 -4.305,-7.239 0,0 -7.63,-2.153 -6.456,-11.739 z"
               style="fill:#ff5046;fill-opacity:1;fill-rule:nonzero;stroke:none"
               id="path1121" />
          </g>
          <g
             id="g1123"
             transform="translate(449.4707,264.9019)">
            <path
               d="m 0,0 v 13.891 l -31.303,-0.783 0.782,-15.26 z"
               style="fill:#ff5046;fill-opacity:1;fill-rule:nonzero;stroke:none"
               id="path1125" />
          </g>
          <g
             id="g1127"
             transform="translate(447.9053,277.0317)">
            <path
               d="m 0,0 c 0,0 -0.782,14.869 -12.717,14.869 -14.086,0 -14.086,-16.043 -14.086,-16.043 z"
               style="fill:#ff5046;fill-opacity:1;fill-rule:nonzero;stroke:none"
               id="path1129" />
          </g>
          <g
             id="g1131"
             transform="translate(437.8545,290.0659)">
            <path
               d="m 0,0 -0.487,9.651 -1.853,1.56 H -5.166 L -6.823,8.969 -7.799,-0.78 Z"
               style="fill:#ff5046;fill-opacity:1;fill-rule:nonzero;stroke:none"
               id="path1133" />
          </g>
          <g
             id="g1135"
             transform="translate(435.0928,300.1479)">
            <path
               d="M 0,0 -0.235,5.751 H -1.474 L -1.895,-0.488 Z"
               style="fill:#ff5046;fill-opacity:1;fill-rule:nonzero;stroke:none"
               id="path1137" />
          </g>
          <g
             id="g1139"
             transform="translate(320.6367,262.7495)">
            <path
               d="M 0,0 V 35.021 H 94.104 V -1.761 Z"
               style="fill:#ff5046;fill-opacity:1;fill-rule:nonzero;stroke:none"
               id="path1141" />
          </g>
          <g
             id="g1143"
             transform="translate(325.1445,296.0298)">
            <path
               d="m 0,0 v 9.87 l 82.521,0.691 1.508,-12.673 z"
               style="fill:#ff5046;fill-opacity:1;fill-rule:nonzero;stroke:none"
               id="path1145" />
          </g>
          <g
             id="g1147"
             transform="translate(321.9766,305.8994)">
            <path
               d="m 0,0 88.555,-1.12 c 0,0 -7.237,50.841 -42.842,50.841 C 4.676,49.721 0,0 0,0"
               style="fill:#ff5046;fill-opacity:1;fill-rule:nonzero;stroke:none"
               id="path1149" />
          </g>
          <path
             d="m 353.355,357.28 h 27.154 v -6.94 h -27.154 z"
             style="fill:#ff5046;fill-opacity:1;fill-rule:nonzero;stroke:none"
             id="path1151" />
          <g
             id="g1153"
             transform="translate(357.7305,355.6201)">
            <path
               d="M 0,0 V 12.823 H 18.706 L 19.159,0 Z"
               style="fill:#ff5046;fill-opacity:1;fill-rule:nonzero;stroke:none"
               id="path1155" />
          </g>
          <g
             id="g1157"
             transform="translate(359.9932,367.2363)">
            <path
               d="m 0,0 0.754,7.392 5.507,9.806 h 2.187 l 5.431,-9.504 0.755,-8.75 z"
               style="fill:#ff5046;fill-opacity:1;fill-rule:nonzero;stroke:none"
               id="path1159" />
          </g>
          <g
             id="g1161"
             transform="translate(369.7988,389.2622)">
            <path
               d="m 0,0 c 0,-1.375 -1.114,-2.489 -2.489,-2.489 -1.374,0 -2.49,1.114 -2.49,2.489 0,1.375 1.116,2.489 2.49,2.489 C -1.114,2.489 0,1.375 0,0"
               style="fill:#ff5046;fill-opacity:1;fill-rule:nonzero;stroke:none"
               id="path1163" />
          </g>
          <g
             id="g1165"
             transform="translate(366.9326,383.0605)">
            <path
               d="M 0,0 -0.302,14.513 H 0.794 L 1.272,0 Z"
               style="fill:#ff5046;fill-opacity:1;fill-rule:nonzero;stroke:none"
               id="path1167" />
          </g>
          <g
             id="g1171"
             transform="translate(136.6333,258.4277)">
            <path
               d="M 0,0 244.964,3.57 120.028,49.529 9.175,3.786 Z"
               style="fill:#ffbc4f;fill-opacity:1;fill-rule:nonzero;stroke:none"
               id="path1173" />
          </g>
          <g
             id="g1175"
             transform="translate(152.6963,261.105)">
            <path
               d="m 0,0 v -16.956 l 211.5,4.462 V 3.124 Z"
               style="fill:#ffbc4f;fill-opacity:1;fill-rule:nonzero;stroke:none"
               id="path1177" />
          </g>
          <g
             id="g1179"
             transform="translate(146.0034,246.3809)">
            <path
               d="m 0,0 223.994,3.123 v -7.14 L 0,-5.801 Z"
               style="fill:#ffbc4f;fill-opacity:1;fill-rule:nonzero;stroke:none"
               id="path1181" />
          </g>
          <g
             id="g1183"
             transform="translate(152.6963,242.4717)">
            <path
               d="M 0,0 -2.974,-73.938 H 8.047 V 0 Z"
               style="fill:#ffbc4f;fill-opacity:1;fill-rule:nonzero;stroke:none"
               id="path1185" />
          </g>
          <path
             d="m 147.919,169.535 h 14.227 v -4.809 h -14.227 z"
             style="fill:#ffbc4f;fill-opacity:1;fill-rule:nonzero;stroke:none"
             id="path1187" />
          <g
             id="g1189"
             transform="translate(182.5522,242.4717)">
            <path
               d="M 0,0 -2.974,-73.938 H 8.046 V 0 Z"
               style="fill:#ffbc4f;fill-opacity:1;fill-rule:nonzero;stroke:none"
               id="path1191" />
          </g>
          <path
             d="m 177.775,169.535 h 14.226 v -4.809 h -14.226 z"
             style="fill:#ffbc4f;fill-opacity:1;fill-rule:nonzero;stroke:none"
             id="path1193" />
          <g
             id="g1195"
             transform="translate(210.8047,242.4717)">
            <path
               d="M 0,0 -2.974,-73.938 H 8.046 V 0 Z"
               style="fill:#ffbc4f;fill-opacity:1;fill-rule:nonzero;stroke:none"
               id="path1197" />
          </g>
          <path
             d="m 206.027,169.535 h 14.227 v -4.809 h -14.227 z"
             style="fill:#ffbc4f;fill-opacity:1;fill-rule:nonzero;stroke:none"
             id="path1199" />
          <g
             id="g1201"
             transform="translate(239.6582,242.4717)">
            <path
               d="M 0,0 -2.974,-73.938 H 8.046 V 0 Z"
               style="fill:#ffbc4f;fill-opacity:1;fill-rule:nonzero;stroke:none"
               id="path1203" />
          </g>
          <path
             d="m 234.881,169.535 h 14.227 v -4.809 h -14.227 z"
             style="fill:#ffbc4f;fill-opacity:1;fill-rule:nonzero;stroke:none"
             id="path1205" />
          <g
             id="g1207"
             transform="translate(364.917,242.4717)">
            <path
               d="M 0,0 2.975,-73.938 H -8.046 V 0 Z"
               style="fill:#ffbc4f;fill-opacity:1;fill-rule:nonzero;stroke:none"
               id="path1209" />
          </g>
          <path
             d="m 369.694,169.535 h -14.227 v -4.809 h 14.227 z"
             style="fill:#ffbc4f;fill-opacity:1;fill-rule:nonzero;stroke:none"
             id="path1211" />
          <g
             id="g1213"
             transform="translate(335.0615,242.4717)">
            <path
               d="M 0,0 2.975,-73.938 H -8.046 V 0 Z"
               style="fill:#ffbc4f;fill-opacity:1;fill-rule:nonzero;stroke:none"
               id="path1215" />
          </g>
          <path
             d="m 339.839,169.535 h -14.227 v -4.809 h 14.227 z"
             style="fill:#ffbc4f;fill-opacity:1;fill-rule:nonzero;stroke:none"
             id="path1217" />
          <g
             id="g1219"
             transform="translate(306.8096,242.4717)">
            <path
               d="M 0,0 2.974,-73.938 H -8.047 V 0 Z"
               style="fill:#ffbc4f;fill-opacity:1;fill-rule:nonzero;stroke:none"
               id="path1221" />
          </g>
          <path
             d="M 311.587,169.535 H 297.36 v -4.809 h 14.227 z"
             style="fill:#ffbc4f;fill-opacity:1;fill-rule:nonzero;stroke:none"
             id="path1223" />
          <g
             id="g1225"
             transform="translate(277.9551,242.4717)">
            <path
               d="M 0,0 2.975,-73.938 H -8.046 V 0 Z"
               style="fill:#ffbc4f;fill-opacity:1;fill-rule:nonzero;stroke:none"
               id="path1227" />
          </g>
          <path
             d="m 282.732,169.535 h -14.226 v -4.809 h 14.226 z"
             style="fill:#ffbc4f;fill-opacity:1;fill-rule:nonzero;stroke:none"
             id="path1229" />
          <g
             id="g1231"
             transform="translate(390.5879,159.9189)">
            <path
               d="m 0,0 0.164,21.052 28.879,-0.226 0.915,-21.06 z"
               style="fill:#ffbc4f;fill-opacity:1;fill-rule:nonzero;stroke:none"
               id="path1233" />
          </g>
          <g
             id="g1235"
             transform="translate(489.0498,159.1494)">
            <path
               d="M 0,0 0.164,21.053 -28.715,21.278 -29.959,0.234 Z"
               style="fill:#ffbc4f;fill-opacity:1;fill-rule:nonzero;stroke:none"
               id="path1237" />
          </g>
          <g
             id="g1239"
             transform="translate(417.999,179.1387)">
            <path
               d="m 0,0 c 0,0 -3.444,35.926 20.976,38.434 24.42,2.508 24.097,-38.787 24.097,-38.787 l 22.414,1.446 -1.289,48.864 -88.746,0.692 -3.371,-51.527 z"
               style="fill:#ffbc4f;fill-opacity:1;fill-rule:nonzero;stroke:none"
               id="path1241" />
          </g>
          <g
             id="g1243"
             transform="translate(392.4727,228.4619)">
            <path
               d="M 0,0 93.384,-0.729 93.411,2.779 0.035,4.589 Z"
               style="fill:#ffbc4f;fill-opacity:1;fill-rule:nonzero;stroke:none"
               id="path1245" />
          </g>
          <g
             id="g1247"
             transform="translate(395.4512,229.7881)">
            <path
               d="M 0,0 2.339,22.925 85.737,22.274 87.185,0.265 Z"
               style="fill:#ffbc4f;fill-opacity:1;fill-rule:nonzero;stroke:none"
               id="path1249" />
          </g>
          <g
             id="g1251"
             transform="translate(112.8643,371.5664)">
            <path
               d="m -6.0609154,-3.7880721 h -3.729 v 10.57 h 1.582 4.065 0.838 z m -6.0779996,0 h -1.581 l -3.378,10.57 h 1.879 3.929 0.662 v -10.57 z m 2.2549996,78.1580001 c -0.108,0.039 -0.2129996,0.08 -0.3209996,0.119 0,0 0.048,-0.037 0.132,-0.103 -0.03,0.003 -0.061,0.006 -0.092,0.008 -0.026,0.063 -0.04,0.095 -0.04,0.095 0,0 -0.011,-0.03 -0.032,-0.089 -0.054,0.004 -0.109,0.006 -0.163,0.01 0.126,0.053 0.195,0.079 0.195,0.079 -0.08,-0.025 -0.157,-0.051 -0.237,-0.076 -0.727,0.049 -1.455,0.076 -2.185,0.076 -17.175,0 -28.152,-13.878 -28.152,-30.998 0,-12.529 12.269,-28.947 22.059,-36.7090001 h 0.741 l 3.378,-10.57 h -1.454 l 1.699,-9.1539999 h 3.728 5.6529996 l 1.528,9.1539999 h -1.748 l 2.756,10.57 h 1.028 c 9.741,7.7190001 22.8290004,24.0140001 22.8290004,36.7090001 0,16.207 -15.1180004,29.506 -31.3020004,30.879"
               style="fill:#ff5046;fill-opacity:1;fill-rule:nonzero;stroke:none"
               id="path1253" />
          </g>
          <g
             id="g1255"
             transform="translate(383.5703,426.9565)">
            <path
               d="m 0,0 h -2.031 v 5.759 h 0.861 2.215 0.456 z m -3.312,0 h -0.861 l -1.841,5.759 h 1.025 2.139 0.362 V 0 Z m 1.229,42.583 c -0.059,0.021 -0.116,0.043 -0.175,0.064 0,0 0.027,-0.02 0.071,-0.055 -0.016,0.001 -0.033,0.003 -0.049,0.004 -0.014,0.034 -0.022,0.051 -0.022,0.051 l -0.017,-0.048 c -0.03,0.002 -0.06,0.004 -0.089,0.005 0.068,0.03 0.106,0.043 0.106,0.043 -0.044,-0.013 -0.086,-0.027 -0.129,-0.041 -0.396,0.027 -0.793,0.041 -1.19,0.041 -9.359,0 -15.339,-7.561 -15.339,-16.888 0,-6.826 6.686,-15.771 12.019,-20 h 0.404 L -4.653,0 h -0.792 l 0.925,-4.987 h 2.032 3.079 L 1.424,0 H 0.472 l 1.501,5.759 h 0.56 c 5.307,4.205 12.438,13.084 12.438,20 0,8.83 -8.237,16.076 -17.054,16.824"
               style="fill:#303030;fill-opacity:1;fill-rule:nonzero;stroke:none"
               id="path1257" />
          </g>
        </g>
      </g>
      <text
         transform="matrix(1,0,0,-1,110.835,77.5762)"
         style="font-variant:normal;font-weight:normal;font-stretch:normal;font-size:12px;font-family:Cabin;-inkscape-font-specification:Cabin-Regular;writing-mode:lr-tb;fill:#fff8e9;fill-opacity:1;fill-rule:nonzero;stroke:none"
         id="text1265"><tspan
           x="0 6.2519999 13.212 17.269199 23.773199 34.6572 37.717201 40.621201 47.665199 52.993198 59.641201 70.5252 73.585197 80.605202 87.565201 90.697197 97.657204 101.8692 104.9292 110.2572 113.1612 117.5652 120.6252 126.7452 137.6292 144.13319 148.5372 151.4892 154.54919 160.2744 167.23441 174.3024 179.6304 186.1344 191.9424 196.2984 202.8024 207.20641 213.8544 220.3584 224.5704 227.6304 233.7504 240.7704 243.67439 250.7184 253.62241 258.95041 264.75839 267.66241 274.73041 281.06641"
           y="0"
           sodipodi:role="line"
           id="tspan1259">Lorem ipsum dolor sit amet, consectetuer adipiscing</tspan><tspan
           x="4.428 10.932 14.124 17.028 21.431999 24.384001 27.444 32.771999 39.276001 46.296001 49.355999 56.375999 59.279999 65.400002 76.283997 79.344002 86.412003 93.372002 100.44 107.088 117.972 128.688 135.108 138.168 145.23599 148.14 155.16 162.024 165.084 171.588 178.23599 181.14 186.468 197.35201 204.312 211.332 214.392 218.79601 221.7 228.76801 234.576 237.48 244.5 251.14799 258.12 262.52399 265.58401 272.23199 276.63599"
           y="14.004"
           sodipodi:role="line"
           id="tspan1261">elit, sed diam nonummy nibh euismod tincidunt ut</tspan><tspan
           x="22.643999 25.836 31.955999 38.916 42.970798 49.4748 55.978802 60.382801 63.442799 70.462799 77.422798 80.556 87.515999 91.570801 98.074799 101.1348 112.0188 118.1388 124.4748 131.5428 137.6628 140.72279 146.8428 150.03481 152.9388 159.9828 166.6308 172.75079 183.6348 186.69479 193.19881 197.3268 203.32561 207.7296 210.7896 216.9456 223.90559 227.0976 233.74561 238.1496 245.1936 251.1936 255.5976 258.40561"
           y="28.007999"
           sodipodi:role="line"
           id="tspan1263">laoreet dolore magna aliquam erat volutpat.</tspan></text>
    </g>
  </g>
</svg>
